<?xml version="1.0" encoding="utf-8"?>
<!-- Generator: Adobe Illustrator 22.0.1, SVG Export Plug-In . SVG Version: 6.00 Build 0)  -->
<svg version="1.1" id="Layer_1" xmlns="http://www.w3.org/2000/svg" xmlns:xlink="http://www.w3.org/1999/xlink" x="0px" y="0px"
	 viewBox="0 0 500 500" style="enable-background:new 0 0 500 500;" xml:space="preserve">
<style type="text/css">
	.st0{fill:#2F1A48;}
	.st1{fill:#ECEBEB;}
	.st2{fill:#76599A;}
	.st3{fill:#61ADBF;}
	.st4{fill:none;stroke:#81BBCE;stroke-width:1.8449;stroke-linecap:round;stroke-miterlimit:10;}
	.st5{fill:none;stroke:#81BBCE;stroke-width:1.8449;stroke-linecap:round;stroke-miterlimit:10;stroke-dasharray:4.7925,4.7925;}
	.st6{fill:none;stroke:#81BBCE;stroke-width:1.8449;stroke-linecap:round;stroke-miterlimit:10;stroke-dasharray:4.6124;}
	.st7{fill:#3A7297;}
	.st8{fill:none;stroke:#4587B4;stroke-width:0.9225;stroke-linecap:round;stroke-miterlimit:10;}
	.st9{fill:none;stroke:#4587B4;stroke-width:0.9225;stroke-linecap:round;stroke-miterlimit:10;stroke-dasharray:4.7468,4.7468;}
	.st10{fill:#FFFFFF;}
	.st11{fill:#886BA5;}
	.st12{fill:none;stroke:#2F1A48;stroke-width:1.8449;stroke-linecap:round;stroke-miterlimit:10;}
	.st13{fill:none;stroke:#4587B4;stroke-width:0.9225;stroke-linecap:round;stroke-miterlimit:10;stroke-dasharray:4.6124;}
	.st14{fill:#5F3C8B;}
	.st15{fill:none;stroke:#3A7297;stroke-width:1.8449;stroke-linecap:round;stroke-miterlimit:10;}
	.st16{fill:#E0A98C;}
	.st17{fill:#DAD854;}
	.st18{fill:none;stroke:#2F1A48;stroke-width:0.9225;stroke-linecap:round;stroke-linejoin:round;stroke-miterlimit:10;}
	.st19{fill:#F2D789;}
	.st20{fill:none;stroke:#E2AF89;stroke-width:0.9225;stroke-linecap:round;stroke-linejoin:round;stroke-miterlimit:10;}
	.st21{fill:#C6516C;}
	.st22{fill:#E6BBA5;}
	.st23{fill:#DB9A8B;}
	.st24{fill:none;stroke:#2F1A48;stroke-width:0.9225;stroke-linecap:round;stroke-miterlimit:10;}
	.st25{fill:#CB6668;}
	.st26{fill:#4C2C74;}
	.st27{fill:none;stroke:#3E235E;stroke-width:1.8449;stroke-linecap:round;stroke-miterlimit:10;}
	.st28{fill:#563284;}
	.st29{fill:none;stroke:#4C2C74;stroke-width:1.8449;stroke-linecap:round;stroke-miterlimit:10;}
	.st30{fill:#DEA491;}
	.st31{opacity:0.6;fill:#32272B;}
	.st32{fill:#FFFFFF;stroke:#040006;stroke-width:2;stroke-miterlimit:10;}
	.st33{clip-path:url(#SVGID_2_);}
	.st34{fill:#1B3358;}
	.st35{fill:#20579A;}
	.st36{fill:#DB9975;}
	.st37{opacity:0.14;}
	.st38{fill:#FEFCFD;}
	.st39{fill:#E2B2B4;}
	.st40{fill:#94B1DA;}
	.st41{opacity:0.21;}
	.st42{clip-path:url(#SVGID_4_);}
	.st43{clip-path:url(#SVGID_6_);}
	.st44{clip-path:url(#SVGID_8_);}
	.st45{fill:#5BA093;}
	.st46{fill:none;stroke:#477FA4;stroke-width:2;stroke-linecap:round;stroke-linejoin:round;stroke-miterlimit:10;}
	.st47{fill:#242445;}
	.st48{fill:#D99794;}
	.st49{fill:#181717;}
	.st50{fill:none;stroke:#BB6E6C;stroke-width:1.6108;stroke-linecap:round;stroke-miterlimit:10;}
	.st51{fill:#BB6E6C;}
	.st52{fill:#292E45;}
	.st53{fill:#DA9893;}
	.st54{fill:#C64927;}
	.st55{fill:none;stroke:#BD2A72;stroke-width:2;stroke-miterlimit:10;}
	.st56{clip-path:url(#SVGID_10_);}
	.st57{fill-rule:evenodd;clip-rule:evenodd;fill:#365591;}
	.st58{fill-rule:evenodd;clip-rule:evenodd;fill:#E6BDB6;}
	.st59{clip-path:url(#SVGID_12_);}
	.st60{fill-rule:evenodd;clip-rule:evenodd;fill:#2E7198;}
	.st61{clip-path:url(#SVGID_14_);}
	.st62{fill-rule:evenodd;clip-rule:evenodd;fill:#1F5372;}
	.st63{fill-rule:evenodd;clip-rule:evenodd;fill:#2C7198;}
	.st64{fill-rule:evenodd;clip-rule:evenodd;fill:#DC9F9E;}
	.st65{fill-rule:evenodd;clip-rule:evenodd;fill:#243045;}
	.st66{clip-path:url(#SVGID_16_);}
	.st67{fill-rule:evenodd;clip-rule:evenodd;fill:#4E6288;}
	.st68{fill-rule:evenodd;clip-rule:evenodd;fill:#DB9D9D;}
	.st69{fill-rule:evenodd;clip-rule:evenodd;fill:#4D1E13;}
	.st70{fill-rule:evenodd;clip-rule:evenodd;fill:#2B4375;}
	.st71{fill-rule:evenodd;clip-rule:evenodd;fill:#D48786;}
	.st72{fill-rule:evenodd;clip-rule:evenodd;fill:#B6473D;}
	.st73{fill-rule:evenodd;clip-rule:evenodd;fill:#DFA123;}
	.st74{clip-path:url(#SVGID_18_);}
	.st75{fill:#ECEDED;}
	.st76{clip-path:url(#SVGID_20_);}
	.st77{fill-rule:evenodd;clip-rule:evenodd;fill:#B3523C;}
	.st78{fill-rule:evenodd;clip-rule:evenodd;fill:#DC9E92;}
	.st79{clip-path:url(#SVGID_22_);}
	.st80{fill-rule:evenodd;clip-rule:evenodd;fill:#FAF9F8;}
	.st81{clip-path:url(#SVGID_24_);}
	.st82{fill-rule:evenodd;clip-rule:evenodd;fill:#D38281;}
	.st83{fill-rule:evenodd;clip-rule:evenodd;fill:#4D1E12;}
	.st84{fill-rule:evenodd;clip-rule:evenodd;fill:#B3523B;}
	.st85{fill-rule:evenodd;clip-rule:evenodd;fill:#CD6E6C;}
	.st86{clip-path:url(#SVGID_26_);}
	.st87{clip-path:url(#SVGID_28_);}
	.st88{fill:none;stroke:#81BBCE;stroke-width:1.8449;stroke-linecap:round;stroke-miterlimit:10;stroke-dasharray:4.6603,4.6603;}
	.st89{fill:none;stroke:#4587B4;stroke-width:0.9225;stroke-linecap:round;stroke-miterlimit:10;stroke-dasharray:4.6867,4.6867;}
	.st90{fill:#9AC9DF;}
	.st91{clip-path:url(#SVGID_30_);}
	.st92{clip-path:url(#SVGID_32_);}
	.st93{clip-path:url(#SVGID_34_);}
	.st94{clip-path:url(#SVGID_36_);}
	.st95{clip-path:url(#SVGID_38_);}
	.st96{clip-path:url(#SVGID_40_);}
	.st97{clip-path:url(#SVGID_42_);}
	.st98{clip-path:url(#SVGID_44_);}
	.st99{clip-path:url(#SVGID_46_);}
	.st100{clip-path:url(#SVGID_48_);}
</style>
<rect x="1.8" class="st90" width="500" height="500"/>
<g>
	<g>
		<path class="st45" d="M224.8,465.9l-6,10.7c-11.9,17.2-33,68.8-35.9,141.2c0,0-10.8,228-9.5,246.4h72.6l31.7-287.4l21.4,286.9
			l83.4,0.5c0,0-7.4-324.1-54.5-388.2l-1-10.1H224.8z"/>
		<g>
			<line class="st46" x1="277.7" y1="578.5" x2="277.7" y2="477.8"/>
			<path class="st46" d="M291.8,477.8l-0.1,66.8c-0.2,4.7-2.1,9.3-5.2,12.8l-8.1,9.2"/>
		</g>
	</g>
	<g>
		<g>
			<path class="st47" d="M236.7,300.7c0,0-44.1-16.2-27.3-61.2c8.4-22.4,32.4-37.5,56.9-28.8c11.6,4.1,21.7,13.3,25.4,31.5
				L236.7,300.7"/>
			<g>
				<g>
					<g>
						<path class="st48" d="M247.2,219.5c-2.4,0.9-4.8,2.2-7,3.9c-19.7,15.5-11.8,50.2,2.8,67c8.1,9.3,20.7,14.5,32.5,11.4
							c17.3-4.5,24.4-22.9,22.7-40c-1.2-12.8-7-25.3-16.5-33.7C272.3,219.8,258.7,215.3,247.2,219.5z"/>
					</g>
				</g>
				<g>
					<g>
						<path class="st48" d="M238,279.7c-3.5,2.8-9.1,3.5-13.1,1.6c-4.1-1.9-7.1-6.2-7.7-11c-0.6-4.2,1-8.8,4.3-11
							c3.3-2.2,8.7-1.5,11,2.1L238,279.7z"/>
					</g>
				</g>
				<g>
					<g>
						<path class="st48" d="M234.5,268.3l-2.8,59.7c-0.7,11,7.3,20.6,18.3,22l0,0c12.6,1.5,23.7-8.5,23.4-21.2l-1.1-55.8
							L234.5,268.3z"/>
					</g>
				</g>
				<g>
					<g>
						<path class="st49" d="M273.1,310.6v-8.2c0,0-16.8,3.3-30.1-11.9C243,290.4,249.8,306.8,273.1,310.6z"/>
					</g>
				</g>
				<path class="st47" d="M229,258.6c21.4,1.1,42.2-11.2,54.8-28.5c0,0-16.4-21.2-40.2-14.2C219.1,223,229,258.6,229,258.6z"/>
				<path class="st50" d="M229.9,272.5c-2.5,0-4.5-1.5-4.5-3.4c0-1.4,1.1-2.7,2.7-3.2"/>
				<g>
					<path class="st51" d="M281.5,273.1c0.3-0.7,0.7-1.3,1.2-1.9c0.4-0.6,1-1.1,1.5-1.6l0.3,1.5c-0.6-0.3-1.1-0.7-1.5-1.1
						c-0.4-0.4-0.8-0.9-1-1.4c-0.6-1-1-2-1.1-3.1c0.8,0.8,1.5,1.6,2.2,2.3c0.4,0.3,0.7,0.7,1.1,0.9c0.4,0.3,0.7,0.5,1.1,0.6l1.2,0.5
						l-0.9,1c-0.5,0.5-1,1-1.6,1.5c-0.6,0.5-1.2,0.9-1.9,1.2L281.5,273.1z"/>
				</g>
				<g>
					<path class="st51" d="M285.7,278.8c-0.8,1.3-2,2.3-3.5,2.9c-0.7,0.3-1.6,0.4-2.4,0.4c-0.8,0-1.6-0.2-2.4-0.5
						c-1.6-0.6-2.7-1.8-3.6-3c-0.4-0.6-0.8-1.3-1.2-2c-0.3-0.7-0.6-1.4-0.8-2.1c0.6,0.5,1,1.1,1.5,1.6c0.5,0.5,1,1,1.5,1.5
						c0.6,0.4,1,0.9,1.6,1.3c0.3,0.2,0.5,0.4,0.8,0.6l0.9,0.4c1.2,0.5,2.4,0.6,3.7,0.4C283.1,280.1,284.4,279.5,285.7,278.8z"/>
				</g>
				<g>
					<path class="st52" d="M270.7,255.7c0.4,2,0.5,3.9,0.2,6c-0.2,1-0.5,2.1-1.4,2.9c-0.2,0.2-0.5,0.4-0.7,0.5
						c-0.3,0.2-0.5,0.2-0.8,0.4c-0.3,0.1-0.6,0.1-0.9,0.1c-0.3,0.1-0.6,0-0.9,0c-1.1-0.1-2.2-0.7-2.9-1.5c-0.7-0.8-1.3-1.7-1.7-2.6
						c-0.8-1.9-1.2-3.8-1.4-5.8c0-0.2,0.2-0.4,0.4-0.5c0.2,0,0.4,0.1,0.5,0.3l0,0c0.3,1.8,0.9,3.7,1.7,5.4c0.4,0.8,0.9,1.6,1.5,2.2
						c0.6,0.6,1.3,1,2.1,1.1c0.8,0.1,1.6,0,2.1-0.6c0.6-0.5,0.9-1.4,1.1-2.3c0.4-1.8,0.4-3.7,0.3-5.6l0,0c0-0.2,0.1-0.4,0.3-0.4
						C270.5,255.4,270.6,255.5,270.7,255.7z"/>
				</g>
				<g>
					<path class="st52" d="M294.8,254.4c0.3,1.6,0.4,3.3,0.2,5c-0.1,0.9-0.4,1.7-1,2.5c-0.3,0.4-0.7,0.7-1.2,0.9
						c-0.2,0.1-0.5,0.1-0.8,0.2c-0.1,0-0.3,0-0.4,0l-0.4,0c-1-0.1-1.9-0.7-2.5-1.5c-0.6-0.7-1-1.5-1.3-2.3c-0.6-1.6-0.9-3.2-1-4.9
						c0-0.2,0.2-0.4,0.4-0.4c0.2,0,0.4,0.1,0.4,0.3l0,0c0.3,1.5,0.7,3.1,1.3,4.5c0.3,0.7,0.7,1.4,1.1,1.9c0.5,0.5,1,0.9,1.6,1
						c0.6,0.1,1.2-0.1,1.6-0.6c0.4-0.5,0.6-1.2,0.8-1.9c0.3-1.5,0.3-3.1,0.2-4.7l0,0c0-0.2,0.1-0.4,0.3-0.4
						C294.6,254.1,294.7,254.3,294.8,254.4z"/>
				</g>
			</g>
			<ellipse class="st47" cx="214.4" cy="221.3" rx="18.2" ry="23.9"/>
		</g>
		<g>
			<path class="st53" d="M426.8,238.1l-4.1-9c-3-7.4-6.5-15.3-10.5-23.6v0l-5.5-10.2c0,0-9.6-33-11.4-34.9c-1.7-1.9,0,11,0,11
				s-4-12-6.8-14.8c-2.2-2.3,0.2,14.5,0.2,14.5c-8.3-16.9-7.3-16.5-8.3-16.9c-2.4-1,3.9,19.7,3.9,19.7s-5.6-13-8.1-13.2
				c-2.6-0.2,5.3,25.7,5.3,25.7s-5.3-3.4-10.9-1.9c-1.4,0.4-2.1,2.2-2,3.3c7.5,0.5,18.4,15.1,18.4,15.1c0,0,0.7,2,1.8,5.4
				c0,0,0,0,0,0c0.6,1.8,1.2,3.6,1.8,5.4c1.8,5.6,4.2,13,6.8,21.1c9.8,31.2,19.1,66.2,23.5,113.5c-28.9-1.1-71.9-12.4-106.8-21.7
				c-0.3,17.6-0.3,35.3-0.2,52.9c2.7,2.2,5.1,4.5,6.9,7c63.4,9.8,128.8,6.7,133.9-1.7C458.3,381.6,476.1,343.9,426.8,238.1z"/>
		</g>
		<path class="st53" d="M188.6,327.2c-33.5,10.8-73.3,23.4-100.7,25.9c1.7-47.5,9.1-82.9,17.2-114.6c2.1-8.2,4.1-15.7,5.6-21.4
			c0.5-1.8,1-3.6,1.5-5.5c0,0,0,0,0,0c0.9-3.4,1.5-5.5,1.5-5.5c0,0,10.1-15.2,17.6-16.1c0.1-1.1-0.7-2.9-2.2-3.2
			c-5.7-1.2-10.7,2.5-10.7,2.5s6.5-26.3,3.9-26c-2.6,0.3-7.4,13.6-7.4,13.6s5.2-20.9,2.8-19.8c-0.9,0.4,0,0-7.3,17.3
			c0,0,1.5-16.9-0.6-14.5c-2.6,3-6,15.2-6,15.2s1-13.1-0.6-11c-1.6,2-9.4,35.5-9.4,35.5l-4.9,10.4v0c-3.6,8.5-6.6,16.6-9.2,24.2
			l-3.6,9.2c-43.4,108.3-23.6,145-19.7,148c5.4,8,69.3,7.6,131.4-5.2C188.3,366.6,188.8,346.9,188.6,327.2z"/>
		<g>
			<g>
				<path class="st54" d="M186.1,336.9c9.5-11.5,31.3-19.5,46-22c14.1,13.8,36.5,5.9,41.1-0.4c11.1,2.2,41,8.5,54.5,11.7
					c17.1,3.8,12.8,22.5,8.7,39.5c0,0,13.6,108-3.1,120.6c-17.6,13.3-21.6,2.5-36.4,7.2c-57.8,18.4-88.3,2.7-88.3,2.7
					c-26.9-29.3-23.3-136.8-23.3-136.8C184,353.3,181.1,342.9,186.1,336.9z"/>
				<path class="st54" d="M108.2,345.1c0,0-11,53.7,1.1,64.3c22.3,19.5,117.6-14.2,117.6-14.2l5.2-80.2L108.2,345.1z"/>
				<path class="st54" d="M273.2,314.6l127.9,27.2c0,0,5,53.4-7.6,63.2c-23.7,18.3-118.7-16.3-118.7-16.3L273.2,314.6z"/>
			</g>
			<g>
				<line class="st55" x1="186.2" y1="407.9" x2="186.9" y2="373.4"/>
				<line class="st55" x1="340.2" y1="406.1" x2="335.9" y2="370"/>
			</g>
		</g>
	</g>
</g>
</svg>
