<svg id="Layer_1" data-name="Layer 1" xmlns="http://www.w3.org/2000/svg" viewBox="0 0 500 500"><defs><style>.cls-1{fill:#3b9c80;}.cls-2{fill:#fff;}.cls-3{fill:#c2394d;}.cls-4{fill:#eccbaf;}.cls-5{fill:#f2d430;}.cls-6{fill:#e8c0a0;}.cls-7{fill:#a71b26;}.cls-8{fill:#dc9932;}.cls-9{fill:#d27b30;}.cls-10{fill:#52a4dc;}.cls-11{fill:#388bc7;}.cls-12{fill:#070308;}</style></defs><title>compartir</title><rect class="cls-1" width="500" height="500"/><path class="cls-2" d="M119.59,450l11.5.71q-.61,9.21-5.85,15t-13.82,5.79q-10.45,0-15.94-7.76T90,442.39q0-13.72,5.44-21.5t16.14-7.76q17.73,0,19.3,21.92l-11.37.83q-.45-12.61-7.89-12.62c-2.6,0-4.66,1.36-6.2,4.07s-2.3,8-2.3,15.77q0,10.45,2.11,14.38a6.81,6.81,0,0,0,6.35,3.92Q118.39,461.4,119.59,450Z"/><path class="cls-2" d="M169.61,449.7q0,21.82-17,21.83t-17-21.83q0-21.79,17-21.79T169.61,449.7Zm-12.08,0q0-8-1.1-10.85a3.89,3.89,0,0,0-3.82-2.83,3.93,3.93,0,0,0-3.8,2.69q-1.16,2.67-1.16,11,0,7.69,1,10.68a4.07,4.07,0,0,0,7.85,0Q157.53,457.45,157.53,449.72Z"/><path class="cls-2" d="M176.45,428.74h11.09v5.73a10.38,10.38,0,0,1,10.16-6.56q7.49,0,9.05,6.56,2.83-6.56,10.19-6.56a12.48,12.48,0,0,1,6.55,1.49,7.94,7.94,0,0,1,3.39,4.09q1,2.6,1,9.78v27.39H216.13V444.47q0-4.7-.66-6.1c-.44-.94-1.43-1.41-2.95-1.41-1.82,0-3,.61-3.57,1.84s-.83,3.72-.83,7.45v24.41h-11.7V444.1c0-3-.22-4.93-.64-5.81s-1.41-1.33-2.93-1.33c-1.88,0-3.13.64-3.76,1.93s-.93,3.74-.93,7.36v24.41H176.45Z"/><path class="cls-2" d="M236.14,428.74h10.79V435q3.44-6.81,9.53-6.81c3.83,0,7,1.71,9.57,5.13s3.81,8.64,3.81,15.66q0,11-3.73,16.65a11.9,11.9,0,0,1-10.48,5.6,10,10,0,0,1-8-3.7v17.31H236.14Zm11.49,24.75c0,4,.33,6.61,1,7.81s2,1.8,4,1.8a4.19,4.19,0,0,0,3.93-2.4q1.27-2.4,1.28-11.64,0-7.71-1.12-10.45a3.85,3.85,0,0,0-3.76-2.73,4.79,4.79,0,0,0-3.72,1.72q-1.53,1.71-1.53,8Z"/><path class="cls-2" d="M287.89,442.06,276.81,441a13.63,13.63,0,0,1,5.38-9.71,18.84,18.84,0,0,1,11.55-3.4q5.89,0,9.47,2.26a9.91,9.91,0,0,1,4.5,5.25,33.67,33.67,0,0,1,.93,9.25v16.73q0,7.8.71,9.3H298.48a23.3,23.3,0,0,1-.58-6.44q-3.86,7.32-11.48,7.31a11,11,0,0,1-7.95-2.93q-3.08-2.93-3.07-8.53,0-7,4.64-10.85t16.9-4.59v-1.57c0-2.8-.28-4.73-.85-5.81a3.35,3.35,0,0,0-3.28-1.62C289.83,435.63,288.2,437.77,287.89,442.06Zm9.05,8.59q-5.1.59-7.28,2.26c-1.46,1.12-2.18,3-2.18,5.65q0,5.29,3.9,5.29,2.12,0,3.84-2.38t1.72-8.75Z"/><path class="cls-2" d="M317.24,428.74h10.29v10.13q2.78-10.67,9.92-10.67a11,11,0,0,1,2,.21v11.41a17,17,0,0,0-1.95-.17q-8.55,0-8.55,13v18.06h-11.7Z"/><path class="cls-2" d="M347,415.87l11.38-.37v13.24h7.72V438h-7.72v15.4a51.27,51.27,0,0,0,.18,5.54A3.27,3.27,0,0,0,359.8,461a5.71,5.71,0,0,0,3.55.85c.88,0,2,0,3.32-.08v8.88a33,33,0,0,1-7.14.87c-3.54,0-6.26-.68-8.14-2a9,9,0,0,1-3.61-5.11,43.48,43.48,0,0,1-.79-9.75V438h-4.64v-9.21H347Z"/><path class="cls-2" d="M383.06,425.29H371.19V413.71h11.87Zm-11.79,3.45H383v41.92H371.27Z"/><path class="cls-2" d="M391.57,428.74h10.29v10.13q2.79-10.67,9.92-10.67a10.88,10.88,0,0,1,2,.21v11.41a16.66,16.66,0,0,0-1.95-.17q-8.55,0-8.55,13v18.06h-11.7Z"/><path class="cls-3" d="M207.3,179V147a21.35,21.35,0,0,1,21.35-21.35h0a47.74,47.74,0,0,0,42.7,0h0A21.35,21.35,0,0,1,292.7,147v32A10.68,10.68,0,0,1,282,189.65H218A10.67,10.67,0,0,1,207.3,179Z"/><circle class="cls-4" cx="250" cy="82.9" r="26.69"/><path class="cls-5" d="M127.24,216.34A5.34,5.34,0,0,1,121.9,211a128,128,0,0,1,78-117.92,5.34,5.34,0,0,1,4.18,9.82h0A117.3,117.3,0,0,0,132.58,211,5.35,5.35,0,0,1,127.24,216.34Z"/><path class="cls-5" d="M372.76,216.34a5.35,5.35,0,0,1-5.34-5.34,117.29,117.29,0,0,0-71.48-108.1,5.34,5.34,0,0,1,4.19-9.82A128,128,0,0,1,378.1,211,5.34,5.34,0,0,1,372.76,216.34Z"/><path class="cls-5" d="M250,339.1a127.39,127.39,0,0,1-50.13-10.18,5.34,5.34,0,1,1,4.18-9.82,118.41,118.41,0,0,0,91.89,0,5.34,5.34,0,1,1,4.19,9.82A127.39,127.39,0,0,1,250,339.1Z"/><path class="cls-5" d="M212.64,349.77a5.33,5.33,0,0,1-4.74-2.86l-10.68-20.43a5.34,5.34,0,0,1,2.26-7.2,5.56,5.56,0,0,1,1-.39l21.35-6.26a5.34,5.34,0,0,1,3,10.24L209.7,327.3,217.37,342a5.33,5.33,0,0,1-4.73,7.8Z"/><path class="cls-5" d="M372.76,216.34a5.3,5.3,0,0,1-3.77-1.57l-16-16a5.34,5.34,0,0,1,7.54-7.55l12.24,12.24L385,191.21a5.34,5.34,0,0,1,7.55,7.55l-16,16A5.27,5.27,0,0,1,372.76,216.34Z"/><path class="cls-5" d="M191.29,125.6a5.28,5.28,0,0,1-2.31-.53,5.35,5.35,0,0,1-2.5-7.12l8.32-17.37-16.4-7.47a5.34,5.34,0,0,1,4.43-9.71l21.35,9.76a5.34,5.34,0,0,1,2.62,7.08l0,.06-10.68,22.28A5.33,5.33,0,0,1,191.29,125.6Z"/><path class="cls-6" d="M266,61.62a26.58,26.58,0,0,1-37.24,37.23A26.62,26.62,0,0,0,271.44,67.1,26.9,26.9,0,0,0,266,61.62Z"/><circle class="cls-4" cx="362.09" cy="259.04" r="26.69"/><path class="cls-6" d="M378,237.75A26.57,26.57,0,0,1,340.8,275,26.61,26.61,0,1,0,378,237.75Z"/><circle class="cls-4" cx="137.91" cy="259.04" r="26.69"/><path class="cls-6" d="M153.86,237.75A26.58,26.58,0,0,1,116.63,275a26.61,26.61,0,1,0,37.23-37.24Z"/><path class="cls-7" d="M207.3,179A10.67,10.67,0,0,0,218,189.65h64A10.68,10.68,0,0,0,292.7,179V147a21.12,21.12,0,0,0-2.9-10.56A101.2,101.2,0,0,1,207.3,179Z"/><path class="cls-8" d="M95.21,355.11v-32a21.35,21.35,0,0,1,21.35-21.35h0a47.74,47.74,0,0,0,42.7,0h0a21.35,21.35,0,0,1,21.35,21.35v32a10.67,10.67,0,0,1-10.67,10.68h-64A10.68,10.68,0,0,1,95.21,355.11Z"/><path class="cls-9" d="M95.21,355.11a10.68,10.68,0,0,0,10.68,10.68h64.05a10.67,10.67,0,0,0,10.67-10.68v-32a21.06,21.06,0,0,0-2.9-10.56A101.2,101.2,0,0,1,95.21,355.11Z"/><path class="cls-10" d="M319.39,355.11v-32a21.35,21.35,0,0,1,21.35-21.35h0a47.74,47.74,0,0,0,42.7,0h0a21.35,21.35,0,0,1,21.35,21.35v32a10.68,10.68,0,0,1-10.68,10.68H330.06A10.67,10.67,0,0,1,319.39,355.11Z"/><path class="cls-11" d="M319.39,355.11a10.67,10.67,0,0,0,10.67,10.68h64.05a10.68,10.68,0,0,0,10.68-10.68v-32a21.16,21.16,0,0,0-2.9-10.56A101.23,101.23,0,0,1,319.39,355.11Z"/><path class="cls-12" d="M282,82.9a32,32,0,1,0-32,32A32,32,0,0,0,282,82.9Zm-53.37,0A21.35,21.35,0,1,1,250,104.25,21.35,21.35,0,0,1,228.65,82.9Z"/><path class="cls-12" d="M202,147v32a16,16,0,0,0,16,16h64a16,16,0,0,0,16-16V147a26.73,26.73,0,0,0-26.69-26.69h-1.26l-1.13.56a42.51,42.51,0,0,1-37.92,0l-1.13-.56h-1.26A26.73,26.73,0,0,0,202,147Zm10.68,0a16,16,0,0,1,14.87-16,53.42,53.42,0,0,0,45,0,16,16,0,0,1,14.87,16v32a5.34,5.34,0,0,1-5.34,5.33H218a5.33,5.33,0,0,1-5.33-5.33Z"/><path class="cls-12" d="M362.09,227a32,32,0,1,0,32,32A32,32,0,0,0,362.09,227Zm0,53.38A21.35,21.35,0,1,1,383.44,259,21.35,21.35,0,0,1,362.09,280.39Z"/><path class="cls-12" d="M383.44,296.4h-1.26l-1.13.53a42.53,42.53,0,0,1-37.93,0L342,296.4h-1.25a26.71,26.71,0,0,0-26.69,26.69v32a16,16,0,0,0,16,16h64.05a16,16,0,0,0,16-16v-32A26.71,26.71,0,0,0,383.44,296.4Zm16,58.71a5.34,5.34,0,0,1-5.34,5.34H330.06a5.35,5.35,0,0,1-5.34-5.34v-32a16,16,0,0,1,14.88-16,53.47,53.47,0,0,0,45,0,16,16,0,0,1,14.88,16v32Z"/><path class="cls-12" d="M137.91,227a32,32,0,1,0,32,32A32,32,0,0,0,137.91,227Zm0,53.38A21.35,21.35,0,1,1,159.26,259,21.35,21.35,0,0,1,137.91,280.39Z"/><path class="cls-12" d="M105.89,371.12h64.05a16,16,0,0,0,16-16v-32a26.72,26.72,0,0,0-26.69-26.69H158l-1.12.53a42.53,42.53,0,0,1-37.93,0l-1.13-.53h-1.26a26.71,26.71,0,0,0-26.68,26.69v32A16,16,0,0,0,105.89,371.12Zm-5.34-48a16,16,0,0,1,14.88-16,53.47,53.47,0,0,0,45,0,16,16,0,0,1,14.88,16v32a5.35,5.35,0,0,1-5.34,5.34h-64a5.34,5.34,0,0,1-5.34-5.34Z"/></svg>