<?xml version="1.0" encoding="utf-8"?>
<!-- Generator: Adobe Illustrator 22.0.1, SVG Export Plug-In . SVG Version: 6.00 Build 0)  -->
<svg version="1.1" id="Layer_1" xmlns="http://www.w3.org/2000/svg" xmlns:xlink="http://www.w3.org/1999/xlink" x="0px" y="0px"
	 viewBox="0 0 500 500" style="enable-background:new 0 0 500 500;" xml:space="preserve">
<style type="text/css">
	.st0{fill:#2F1A48;}
	.st1{fill:#ECEBEB;}
	.st2{fill:#76599A;}
	.st3{fill:#61ADBF;}
	.st4{fill:none;stroke:#81BBCE;stroke-width:1.8449;stroke-linecap:round;stroke-miterlimit:10;}
	.st5{fill:none;stroke:#81BBCE;stroke-width:1.8449;stroke-linecap:round;stroke-miterlimit:10;stroke-dasharray:4.7925,4.7925;}
	.st6{fill:none;stroke:#81BBCE;stroke-width:1.8449;stroke-linecap:round;stroke-miterlimit:10;stroke-dasharray:4.6124;}
	.st7{fill:#3A7297;}
	.st8{fill:none;stroke:#4587B4;stroke-width:0.9225;stroke-linecap:round;stroke-miterlimit:10;}
	.st9{fill:none;stroke:#4587B4;stroke-width:0.9225;stroke-linecap:round;stroke-miterlimit:10;stroke-dasharray:4.7468,4.7468;}
	.st10{fill:#FFFFFF;}
	.st11{fill:#886BA5;}
	.st12{fill:none;stroke:#2F1A48;stroke-width:1.8449;stroke-linecap:round;stroke-miterlimit:10;}
	.st13{fill:none;stroke:#4587B4;stroke-width:0.9225;stroke-linecap:round;stroke-miterlimit:10;stroke-dasharray:4.6124;}
	.st14{fill:#5F3C8B;}
	.st15{fill:none;stroke:#3A7297;stroke-width:1.8449;stroke-linecap:round;stroke-miterlimit:10;}
	.st16{fill:#E0A98C;}
	.st17{fill:#DAD854;}
	.st18{fill:none;stroke:#2F1A48;stroke-width:0.9225;stroke-linecap:round;stroke-linejoin:round;stroke-miterlimit:10;}
	.st19{fill:#F2D789;}
	.st20{fill:none;stroke:#E2AF89;stroke-width:0.9225;stroke-linecap:round;stroke-linejoin:round;stroke-miterlimit:10;}
	.st21{fill:#C6516C;}
	.st22{fill:#E6BBA5;}
	.st23{fill:#DB9A8B;}
	.st24{fill:none;stroke:#2F1A48;stroke-width:0.9225;stroke-linecap:round;stroke-miterlimit:10;}
	.st25{fill:#CB6668;}
	.st26{fill:#4C2C74;}
	.st27{fill:none;stroke:#3E235E;stroke-width:1.8449;stroke-linecap:round;stroke-miterlimit:10;}
	.st28{fill:#563284;}
	.st29{fill:none;stroke:#4C2C74;stroke-width:1.8449;stroke-linecap:round;stroke-miterlimit:10;}
	.st30{fill:#DEA491;}
	.st31{opacity:0.6;fill:#32272B;}
	.st32{fill:#FFFFFF;stroke:#040006;stroke-width:2;stroke-miterlimit:10;}
	.st33{clip-path:url(#SVGID_2_);}
	.st34{fill:#1B3358;}
	.st35{fill:#20579A;}
	.st36{fill:#DB9975;}
	.st37{opacity:0.14;}
	.st38{fill:#FEFCFD;}
	.st39{fill:#E2B2B4;}
	.st40{fill:#94B1DA;}
	.st41{opacity:0.21;}
	.st42{clip-path:url(#SVGID_4_);}
	.st43{clip-path:url(#SVGID_6_);}
	.st44{clip-path:url(#SVGID_8_);}
	.st45{fill:#5BA093;}
	.st46{fill:none;stroke:#477FA4;stroke-width:2;stroke-linecap:round;stroke-linejoin:round;stroke-miterlimit:10;}
	.st47{fill:#242445;}
	.st48{fill:#D99794;}
	.st49{fill:#181717;}
	.st50{fill:none;stroke:#BB6E6C;stroke-width:1.6108;stroke-linecap:round;stroke-miterlimit:10;}
	.st51{fill:#BB6E6C;}
	.st52{fill:#292E45;}
	.st53{fill:#DA9893;}
	.st54{fill:#C64927;}
	.st55{fill:none;stroke:#BD2A72;stroke-width:2;stroke-miterlimit:10;}
	.st56{clip-path:url(#SVGID_10_);}
	.st57{fill-rule:evenodd;clip-rule:evenodd;fill:#365591;}
	.st58{fill-rule:evenodd;clip-rule:evenodd;fill:#E6BDB6;}
	.st59{clip-path:url(#SVGID_12_);}
	.st60{fill-rule:evenodd;clip-rule:evenodd;fill:#2E7198;}
	.st61{clip-path:url(#SVGID_14_);}
	.st62{fill-rule:evenodd;clip-rule:evenodd;fill:#1F5372;}
	.st63{fill-rule:evenodd;clip-rule:evenodd;fill:#2C7198;}
	.st64{fill-rule:evenodd;clip-rule:evenodd;fill:#DC9F9E;}
	.st65{fill-rule:evenodd;clip-rule:evenodd;fill:#243045;}
	.st66{clip-path:url(#SVGID_16_);}
	.st67{fill-rule:evenodd;clip-rule:evenodd;fill:#4E6288;}
	.st68{fill-rule:evenodd;clip-rule:evenodd;fill:#DB9D9D;}
	.st69{fill-rule:evenodd;clip-rule:evenodd;fill:#4D1E13;}
	.st70{fill-rule:evenodd;clip-rule:evenodd;fill:#2B4375;}
	.st71{fill-rule:evenodd;clip-rule:evenodd;fill:#D48786;}
	.st72{fill-rule:evenodd;clip-rule:evenodd;fill:#B6473D;}
	.st73{fill-rule:evenodd;clip-rule:evenodd;fill:#DFA123;}
	.st74{clip-path:url(#SVGID_18_);}
	.st75{fill:#ECEDED;}
	.st76{clip-path:url(#SVGID_20_);}
	.st77{fill-rule:evenodd;clip-rule:evenodd;fill:#B3523C;}
	.st78{fill-rule:evenodd;clip-rule:evenodd;fill:#DC9E92;}
	.st79{clip-path:url(#SVGID_22_);}
	.st80{fill-rule:evenodd;clip-rule:evenodd;fill:#FAF9F8;}
	.st81{clip-path:url(#SVGID_24_);}
	.st82{fill-rule:evenodd;clip-rule:evenodd;fill:#D38281;}
	.st83{fill-rule:evenodd;clip-rule:evenodd;fill:#4D1E12;}
	.st84{fill-rule:evenodd;clip-rule:evenodd;fill:#B3523B;}
	.st85{fill-rule:evenodd;clip-rule:evenodd;fill:#CD6E6C;}
	.st86{clip-path:url(#SVGID_26_);}
	.st87{clip-path:url(#SVGID_28_);}
	.st88{fill:none;stroke:#81BBCE;stroke-width:1.8449;stroke-linecap:round;stroke-miterlimit:10;stroke-dasharray:4.6603,4.6603;}
	.st89{fill:none;stroke:#4587B4;stroke-width:0.9225;stroke-linecap:round;stroke-miterlimit:10;stroke-dasharray:4.6867,4.6867;}
	.st90{fill:#9AC9DF;}
	.st91{clip-path:url(#SVGID_30_);}
	.st92{clip-path:url(#SVGID_32_);}
	.st93{clip-path:url(#SVGID_34_);}
	.st94{clip-path:url(#SVGID_36_);}
	.st95{clip-path:url(#SVGID_38_);}
	.st96{clip-path:url(#SVGID_40_);}
	.st97{clip-path:url(#SVGID_42_);}
	.st98{clip-path:url(#SVGID_44_);}
	.st99{clip-path:url(#SVGID_46_);}
	.st100{clip-path:url(#SVGID_48_);}
</style>
<rect class="st90" width="500" height="500"/>
<g>
	<g>
		<g>
			<g>
				<g>
					<path class="st34" d="M368.1,243.8c-3.7-1.7-7.4-3.4-10.3-6.3c-2.9-2.8-4.8-7-4-10.9c0.8-4,5.1-7.2,9-6.1
						c-2.2-3.6-1.6-8.6,1.3-11.7c2.9-3,8-3.7,11.6-1.6c-0.6-5.8-0.6-13.1,4.6-15.8c2.7-1.4,6.2-1,8.8,0.6c2.6,1.6,4.6,4.1,6,6.8
						c2.1-2.4,2.8-5.8,5-8.2c2.6-2.9,7.2-3.8,10.9-2.3c3.7,1.4,6.4,4.9,7.2,8.8c4.2-3.6,9.7-7.5,14.7-5.2c1.6,0.7,2.8,1.9,4,3.2
						c3.4,3.9,6,8.5,7.5,13.4c0.2,0.6,0.4,1.3,0.9,1.7c0.6,0.6,1.6,0.5,2.5,0.6c3.7,0.2,7.2,2.7,8.7,6s1,7.6-1.4,10.5
						c4.6,2.2,9.4,4.6,12.2,8.8c2.8,4.2,2.8,10.8-1.4,13.6c-2,1.3-4.8,2-5.4,4.2c-0.4,1.5,0.5,3.1,0.9,4.6c1.1,4.3-3,9.1-7.4,8.7
						c-1.1-0.1-2.5-0.4-3.2,0.4c-0.8,0.9-0.2,2.3,0.1,3.4c0.8,2.9-0.4,6.2-2.9,7.9c-2.5,1.7-6,1.6-8.4-0.2c-1.6,3.1-5.3,5.1-8.8,4.7
						s-6.6-3.2-7.4-6.7"/>
				</g>
				<g>
					<g>
						<path class="st35" d="M272,270.6c-6.8,1.9-10.6,16.2-10.5,27.6c0.3,26.7,22.1,45.6,28.4,51.2c2,1.7,9.5,8.1,20.7,12.9
							c8.1,3.5,13.9,4.4,18.3,4.6c6.3,0.3,9.4-0.9,10.5-1.4c5-2.1,7.9-5.9,9.7-8.3c14-19,17-31.1,25-51.2c0.5-1.3,1.9-4.7,0.4-7
							c-0.8-1.4-2.4-2.1-4.8-2.5c-5.4-0.9-9.8,1-18.8,4.7c-9.8,4-11.2,4.5-13.5,5.2c-4.4,1.2-8.2,2.2-13.3,1.9
							c-3.1-0.2-7.7-0.6-11.9-3.9c-1.9-1.5-2.9-2.9-4.7-5.6c-2.8-4-3.8-6.9-8.5-17c-2.8-6.1-3.2-6.8-4.2-7.5
							c-2.8-2.1-5.3-1.3-13.2-2.1C274,271.1,273.9,270.1,272,270.6z"/>
					</g>
					<g>
						<path class="st35" d="M364.6,296.3c8.2-1.7,14.7-1,18.7-0.4c30.1,4.1,51.3,8,74,24.5c6.7,4.9,13,10.8,17.3,18.6
							c6.5,12,7.2,27,7.8,41.3c0.9,22.9,1.8,45.9,2.6,68.8c-17.7,3.7-35.7,6.1-53.6,8.4c-6.8,0.9-17.3,2-26.9,2.6
							c-17.1,1-42.5,0.6-74.8-6.9c-7.1-80.8,3.3-140.5,16.5-149.2C355.1,298.3,364.6,296.3,364.6,296.3z"/>
					</g>
					<g>
						<g>
							<path class="st36" d="M285.2,255.1c6.1,0,12.2-2.4,16.7-6.6c2.9-2.7,5.1-6.1,7.3-9.4c1.9-2.9,3.8-5.8,5.6-8.6
								c0.4-0.7,0.9-1.5,0.6-2.2c-0.4-1.1-1.9-1.2-3-0.9c-5.8,1.2-10.8,4.7-15.6,8.1c1.2-6.9,2.4-13.9,3.6-20.8
								c1.6-9.3,3.1-19.4-1.1-27.9c-0.7-1.4-2.1-3-3.6-2.6c-1.6,0.4-1.9,2.5-1.9,4.2c-0.1,7.6-0.3,15.3-0.4,22.9
								c0.1-6.7,0.2-13.4,0.4-20.1c0-2.3,0.1-4.7-1-6.7c-1.1-2-3.7-3.4-5.7-2.3c-0.9,9-1.5,18-2,27c0-8,0-16.1,0.1-24.1
								c0-0.9,0-1.8-0.7-2.4c-0.7-0.6-1.9-0.4-2.7,0.1c-2.3,1.5-2.9,4.5-3.2,7.3c-0.7,6.1-1,12.2-1,18.3c-0.4-4.1-0.8-8.2-1.1-12.4
								c-0.1-1.6-0.7-3.6-2.3-3.8c-1.8-0.2-2.6,2.2-2.8,4c-1.3,12.2-2.5,24.3-3.8,36.5c-0.6,5.7-1.1,11.9,1.9,16.8
								c2.8,4.7,8.7,7.2,14,6"/>
						</g>
						<g>
							<path class="st36" d="M291.1,247.3c0.4,9.2,0.9,18.3,1.3,27.5c0,0.7,0.1,1.4-0.1,2.1c-0.5,1.8-2.3,2.9-4,3.7
								c-5.2,2.6-10.5,5.2-16.3,6.2c-0.9,0.1-1.9,0.2-2.5-0.4c-0.6-0.5-0.7-1.3-0.8-2.1c-1.2-12.2-1.1-24.5,0.5-36.6
								c0.2-1.3,0.4-2.7,1.2-3.7c1.1-1.3,2.8-1.6,4.5-1.7c4.8-0.2,9.7,1.2,13.7,4"/>
						</g>
					</g>
					<g>
						<g>
							<path class="st36" d="M417.6,215.5c-4.9-1.8-10.8-3.9-18.6-3.9c-5.4,0-10.3-0.2-15.1,2.6c-5.7,3.3-9.1,9.7-11.9,15.9
								c-5.8,12.7-10.6,25.9-14.3,39.4c-1.4,5.1-2.7,10.4-2.7,15.7c0,5.3,1.4,10.8,4.8,14.8c4.1,4.8,10.5,6.8,16.7,7.4
								c13.1,1.2,26.6-3.2,37.1-11.5c10.5-8.3,18.1-20.5,21.8-33.7c1.7-6.2,2.7-12.8,1.5-19.2c-0.9-5.2-2.9-8.9-5.8-14.5
								c-3.5-6.7-5.9-8.9-7.8-10.2C422.3,217.4,420.9,216.6,417.6,215.5z"/>
						</g>
						<g>
							<path class="st36" d="M375.1,302.3c6.1,4.4,9.4,12.1,10.5,19.8c0.2,1.5,0.4,3.1,1.4,4.3c0.6,0.6,1.3,1.1,2.1,1.4
								c6.6,2.9,14.3,2.3,21.1-0.3c6.8-2.5,12.8-6.7,18.8-10.9c2-1.4,4-2.9,4.9-5.1c1.1-3-0.1-6.3-1.4-9.2c-3.1-7.3-6.3-14.7-9.4-22
								"/>
						</g>
					</g>
				</g>
				<g>
					<path class="st34" d="M386.3,208.6c-3.4-1-7.4,1.2-8.3,4.6c-0.2,0.7-0.3,1.4-0.7,2c-0.4,0.5-1.1,0.8-1.7,1.1
						c-3.5,1.6-6.8,3.9-8.9,7.1s-2.7,7.6-0.9,11c1.8,3.4,6.2,5.5,9.7,4c3-1.2,4.6-4.4,6-7.2c1.5,3.7,6,5.8,9.8,4.8
						c3.8-1.1,6.5-5.2,6-9.1c3.4,2.5,7.1,5,11.2,4.9c4.2-0.1,8.3-4.3,6.8-8.2c4.4-0.1,9.9-1.1,10.8-5.4c0.6-2.6-1-5.2-3-6.9
						c-4.1-3.8-10.2-5.3-15.5-3.9c-0.7,0.2-1.3,0.4-2,0.3c-1-0.1-1.8-0.8-2.6-1.5c-2.4-1.9-5.5-3.3-8.6-3.2
						c-3.1,0.1-6.3,1.9-7.5,4.7"/>
				</g>
				<g>
					<path class="st34" d="M426.2,218.2c-2.8,0-5.7,1.1-7.3,3.4c-1.6,2.3-1.4,5.9,0.9,7.6c0.8,0.6,1.9,1.2,1.8,2.2
						c-0.1,0.5-0.4,0.8-0.6,1.2c-2.2,3-1.9,7-1.5,10.7c0.3,2.7,1.3,6.1,3.9,6.3c0.6,0.1,1.3,0,1.8,0.4c0.7,0.7-0.1,1.8-0.7,2.5
						c-3.2,3.6-4,10-0.1,12.8c1.3,1,3,1.4,4.6,1.6c3.4,0.5,7.1,0.4,10-1.5c2.8-2,4.1-6.3,1.9-9c3.9-1.5,6.7-5.6,6.7-9.8
						c0-4.2-2.8-8.3-6.7-9.8c1.6-2,1-5.2-0.8-7.1s-4.3-2.9-6.8-3.7c-0.9-0.3-1.9-0.7-2.2-1.6c-0.2-0.6,0-1.1,0.1-1.7
						c0.3-2.3-1.2-4.7-3.4-5.5"/>
				</g>
				<g>
					<path class="st36" d="M423.3,265.5c2-1.5,5.8-3.9,10.8-4.2c2.7-0.2,6.3-0.6,8.7,1.9c2.2,2.3,2.9,5.7,2.5,8.8
						c-0.6,4.6-3.7,9.1-8.4,11c-7.2,2.9-13.5-1.6-13.8-1.8"/>
				</g>
				<polyline class="st35" points="329.8,453.2 338,515.2 485,522.8 485,449.1 				"/>
			</g>
			<g>
				
					<ellipse transform="matrix(0.2149 -0.9766 0.9766 0.2149 57.0189 589.9133)" class="st34" cx="395.4" cy="259.5" rx="6.9" ry="4"/>
				
					<ellipse transform="matrix(0.2149 -0.9766 0.9766 0.2149 40.3574 561.645)" class="st34" cx="369.5" cy="255.7" rx="6.9" ry="4"/>
				<g>
					<g>
						<path class="st34" d="M393.3,246.7c4.4-0.3,8.5,1.5,11.1,5.1c0.6,0.9,2.1,0,1.4-0.8c-2.9-4.1-7.5-6.3-12.5-5.9
							C392.2,245.1,392.2,246.8,393.3,246.7L393.3,246.7z"/>
					</g>
				</g>
				<g>
					<g>
						<path class="st34" d="M374.8,242.7c-2.2-0.9-4.4-1.2-6.8-0.9c-1.1,0.1-1.1,1.8,0,1.7c2.2-0.3,4.3,0,6.3,0.9
							C375.3,244.7,375.7,243.1,374.8,242.7L374.8,242.7z"/>
					</g>
				</g>
				<g class="st37">
					<g>
						<g>
							<path class="st34" d="M385.7,308c8.4-2.4,16.5-5.7,24-10c5.9-3.4,11.7-7.3,14.3-13.9c0.4-1-1.2-1.4-1.6-0.4
								c-2.7,7.2-10.1,11.1-16.5,14.6c-6.6,3.5-13.5,6.1-20.6,8.2C384.3,306.7,384.7,308.3,385.7,308L385.7,308z"/>
						</g>
					</g>
					<g>
						<g>
							<path class="st34" d="M427.9,273.6c2.2-4.9,7.7-7.5,12.9-6c1,0.3,1.5-1.3,0.4-1.6c-5.9-1.7-12.3,1.2-14.8,6.8
								C426.1,273.8,427.5,274.6,427.9,273.6L427.9,273.6z"/>
						</g>
					</g>
					<g>
						<g>
							<path class="st34" d="M294.4,226.8c-9.8,0.4-15.3,8.7-17.9,17.3c-0.3,1,1.3,1.5,1.6,0.4c2.4-7.7,7.3-15.7,16.3-16
								C295.4,228.4,295.4,226.8,294.4,226.8L294.4,226.8z"/>
						</g>
					</g>
					<g>
						<g>
							<path class="st34" d="M296.3,213.7c-6.7-0.3-13.2,0.5-19.6,2.5c-1,0.3-0.6,1.9,0.4,1.6c6.3-1.9,12.6-2.7,19.2-2.5
								C297.4,215.4,297.4,213.7,296.3,213.7L296.3,213.7z"/>
						</g>
					</g>
					<g>
						<g>
							<path class="st34" d="M376.8,248.6c-0.1,4.8-0.2,9.8-2.1,14.3c-1.4,3.2-5.9,5.9-6,9.5c-0.3,6,6.7,6.4,10.5,4.2
								c0.9-0.5,0.1-2-0.8-1.4c-2.2,2-3.7,1.2-4.3-2.2c-2.4-1.5-2.9-2.8-1.5-3.8c0.3-0.6,1.2-1.2,1.6-1.8c1.2-1.6,2.1-3.4,2.8-5.3
								c1.5-4.3,1.6-9,1.6-13.5C378.5,247.5,376.8,247.5,376.8,248.6L376.8,248.6z"/>
						</g>
					</g>
					<g>
						<g>
							<path class="st34" d="M368.1,284.6c7.8,4.1,16.9,3.7,24.2-1.2c0.9-0.6,0.1-2-0.8-1.4c-6.9,4.5-15.2,5-22.6,1.2
								C368,282.7,367.1,284.1,368.1,284.6L368.1,284.6z"/>
						</g>
					</g>
					<g>
						<g>
							<path class="st38" d="M330.2,365.5c2.1-9.8,4-19.5,6.2-29.3c1.9-8.5,4.2-17.1,11-23.1c0.8-0.7-0.4-1.9-1.2-1.2
								c-6.2,5.4-8.9,13.1-10.7,20.9c-2.5,10.7-4.6,21.5-6.8,32.2C328.4,366.1,330,366.5,330.2,365.5L330.2,365.5z"/>
						</g>
					</g>
					<g>
						<g>
							<path class="st38" d="M461.2,325.7c-13.7,2.3-19.1,16.2-21.9,28.2c-2.3,9.8-3.4,19.9-4.3,30c-2.3,25.7-2.6,51.6-2.4,77.4
								c0.1,12,0.3,24,0.8,36c0,1.1,1.7,1.1,1.7,0c-0.8-21.2-1-42.4-0.7-63.6c0.4-23.3,1-47,4.8-70.1c2.3-13.8,6.1-33.5,22.5-36.3
								C462.7,327.1,462.2,325.5,461.2,325.7L461.2,325.7z"/>
						</g>
					</g>
					<g>
						<g>
							<path class="st38" d="M305.6,300c1.4,7.6-4.4,13.2-9.6,17.9c-0.8,0.7,0.4,1.9,1.2,1.2c5.7-5.2,11.5-11.2,10-19.5
								C307.1,298.5,305.4,298.9,305.6,300L305.6,300z"/>
						</g>
					</g>
					<g>
						<g>
							<path class="st38" d="M306.1,300.5c0.8,7,1,14,0.7,21.1c-0.1,1.1,1.6,1.1,1.7,0c0.3-7,0.1-14.1-0.7-21.1
								C307.6,299.5,305.9,299.5,306.1,300.5L306.1,300.5z"/>
						</g>
					</g>
				</g>
			</g>
		</g>
		<g>
			<g>
				<g>
					<g>
						<path class="st34" d="M147,207.7c-13-9.3-31.5-12.4-45-3.9c-6.8,4.3-11.7,11-16.4,17.5c-8.9,12.4-18,25.2-21.2,40
							c-1.6,7.3-1.7,14.9-2.7,22.3c-0.5,4.1-1.4,8.3-3.3,12c-6.7,13.3-23.9,16.9-35.6,26.2c-11.4,9-17.5,24-16.6,38.6
							c0.9,14.5,8.3,28.3,19.2,37.9c0.8-5.4,0.9-10.8,0.5-16.2c2.7,8.1,8.7,15.1,16.4,18.9c1.9-6.6,3.1-13.4,3.6-20.3
							c9.2,12.6,25.2,19.9,40.7,18.7s30.1-11.1,37.2-25c1.3-2.7,2.4-5.5,4-8c2.7-4.2,6.7-7.4,10.7-10.4c9.4-7.4,19-14.9,25.8-24.7
							s10.6-22.5,7.2-34c-2.1-6.9-6.5-12.9-9.5-19.4c-7.7-16.6-6.5-37.7-19.3-50.7"/>
					</g>
					<g>
						<path class="st39" d="M283.6,252c-9.1,47.6-14,71.9-29.4,96.6c-3.1,5-4.8,7.6-7.4,10.2c-11.3,11.3-25.6,11.5-61.4,12
							c-2.8,0-5.4,0.1-7.9,0.1c-40.8,0.6-50.2,0.3-56.1-7.8c-5.9-8.1-4.8-19.5-4.8-20.1c0.3-5,1.6-10.3,4.6-14.1
							c1.4-1.8,3.1-3.2,5.2-4.1c0.4-0.2,0.7-0.3,1.1-0.4c4-1.3,8.4-0.7,12.5-0.1l0.1,0c26.7,4.2,54.1,10.5,80.3,3.7
							c2.3-0.6,4.6-1.3,6.5-2.8c1.9-1.5,3.1-3.7,4.3-5.8c10-17.9,19-36.4,27-55.3c0.9-2.2,1.8-4.5,1.5-6.8c-0.4-2.5-2.2-4.5-3.9-6.4
							c-5.1-5.6-10.2-11.1-15.3-16.7c-1-1.1-2.1-2.4-2.3-3.9c-0.2-1.5,0.9-3.3,2.4-3.2c0.6,0.1,1.2,0.4,1.7,0.7
							c4.3,2.7,8.7,5.5,13,8.2c-2.6-9-5.2-18-7.8-27c-0.9-3.2-1.5-7.3,1.2-9.1c1.9,3.3,3.5,6.8,4.8,10.4c-1.4-6.1-2.5-12.3-3.1-18.5
							c1.8-0.9,4,0.1,5.3,1.7c0.4,0.5,0.7,1,0.9,1.6c0.1-0.6,0.4-1.2,0.9-1.6c1.2-1,3.1-0.5,4.2,0.6c1.1,1.1,1.5,2.7,1.8,4.3
							c0.4,1.6,0.8,3.2,1.2,4.7c0-0.9,0-1.7,0.1-2.6c2.4-0.5,4.2,2.2,5.1,4.6c3.1,7.7,6.2,15.4,9.3,23.1c3.1,7.7,4.8,10.4,5,16.4
							C284.4,247.9,283.8,250.7,283.6,252z"/>
					</g>
					<g>
						<path class="st39" d="M130.1,328c-0.2,0.9-0.4,1.7-0.5,2.3c-0.2,0.9-0.4,1.8-1.2,2.3c-0.6,0.4-1.2,0.4-1.9,0.3
							c-1,0-2-0.1-3.1-0.1c1.4-1.9,3.2-3.4,5.4-4.3C129.4,328.3,129.7,328.2,130.1,328z"/>
					</g>
					<g>
						<path class="st39" d="M138.9,301.9c-1.6,1.9-3.6,4.5-4.9,9.3c-0.4,1.6-0.9,3.5-1.4,5.6v0c-0.4,1.5-0.7,3.1-1.1,4.6
							c-3.3,0.1-6.5,0.7-9.5,2c-4.2,1.8-7.4,4.8-10,8.5c-3.3,4.6-5.5,10.2-7.2,15.6c-1.6,5.2-3.1,10.7-6.4,15.1
							c-4.5,5.9-12.6,8.6-19.9,7.4c0.1-11,1.7-25.1,8-40.1c1.4-3.4,2.9-6.5,4.5-9.4c1.4-3.5,2.7-7.2,4-11.2c2-6.4,3.6-12.4,4.7-18
							c3.1-1,5.9-2.8,8.3-4.6c3.1,3.3,6.9,5.8,10.9,8C125.2,298.2,132,300.8,138.9,301.9z"/>
					</g>
					<g>
						<path class="st39" d="M138.9,301.9c-7-1.2-13.8-3.8-20-7.2c-4-2.2-7.8-4.7-10.9-8c-2.5,1.8-5.3,3.6-8.3,4.6
							c1-3.7,2-7.7,3.1-11.9c0.1-0.2,0.1-0.5,0.2-0.7c0.3-1.2,0.6-2.3,0.9-3.5c0,0,0,0,0,0c1.5,2,4.2,5.3,8.3,8.3c0,0,0.1,0,0.1,0.1
							c13.4,9.9,27,7.1,28.8,13.2C141.8,298.8,140.6,300,138.9,301.9z"/>
					</g>
					<g>
						<path class="st39" d="M161.5,259.8c0,5.7-0.1,11.4-0.4,17.2c-0.2,5.1-0.6,10.2-1,15.2c-0.2,2.2-0.5,4.5-1.7,6.4
							c-2,3-6,3.9-9.6,4c-3.3,0.2-6.6-0.1-9.9-0.6c-7-1.2-13.8-3.8-20-7.2c-4-2.2-7.8-4.7-10.9-8c-2.1-2.2-3.8-4.6-5.2-7.3
							c-0.1-0.2-0.2-0.4-0.3-0.6c-3.6-7.1-5.1-15.4-5.8-23.6c-0.1-1.8-0.3-3.6-0.4-5.4c-0.4-7.8-1.2-11.6-0.4-15.4
							c2.2-10.7,10.4-22.5,23.4-26.6c2.5-0.8,11.5-3.6,20.6,0.4c4.8,2.1,8.3,5.5,11,9.3c4.4,6.4,6.6,14.2,8.1,19.7
							c1,3.6,2,8.7,2.3,17.9C161.5,256.6,161.5,258.1,161.5,259.8z"/>
					</g>
					<g>
						<path class="st39" d="M105.6,256.4c-2.8-1.9-5.9-3.2-9.2-3.8c-1.3-0.3-2.7-0.4-4,0c-1.6,0.5-2.9,1.8-3.9,3.1
							c-2,2.8-3,6.2-2.7,9.6s2,6.6,4.8,8.6c3.6,2.5,8.3,2.7,12.6,2.3L105.6,256.4z"/>
					</g>
					<g>
						<path class="st40" d="M169.2,408.1c-4.8,11.2-7.5,79.7-7.4,88.5c0.1,4.4,0.8,5.5-0.3,7.4c-3.2,5.4-13.2,1.9-34,1.3
							c-15.8-0.4-31.7-1.4-47.3-3.8c-0.9-0.1-1.9-0.3-2.6-1c-0.5-0.5-0.8-1.3-1-2c-1-3.5-1.6-102.3,1.7-134.3
							c7,1.1,14.6-1.4,18.9-7.1c3.2-4.2,4.6-9.4,6.1-14.4c1.6-5.1,3.8-10.5,6.9-14.8c2.5-3.5,5.6-6.4,9.6-8.1c1.9-0.8,5.1-2.3,9-1.9
							c2.4,0.3,4.5,1.1,5.4,1.5c2,0.8,3,1.6,3.2,1.7c1.3,1,2.1,2.2,2.6,3l-0.1,0c-4.2-0.7-8.6-1.2-12.5,0.1
							c-0.4,0.1-0.7,0.3-1.1,0.4c-2.1,0.9-3.8,2.4-5.2,4.1c-3,3.8-4.3,9.2-4.6,14.1c0,0.6-1.1,12,4.8,20.1c5.8,8,15.3,8.3,56.1,7.8
							c1,4,2,10,0.8,16.8C177,394.9,174.7,395.3,169.2,408.1z"/>
					</g>
					<g>
						<path class="st39" d="M160.2,252.5c1.4,4.4,2.9,7.8,3.9,10.1c2,4.3,3.6,6.8,2.5,9c-0.7,1.5-2.4,2.3-3.1,2.7
							c-1.9,0.9-3.6,1-4.5,0.9C159.3,267.7,159.7,260.1,160.2,252.5z"/>
					</g>
					<g>
						<path class="st34" d="M111.9,207.5c-3.6,7.5-4.1,16.3-1.4,24.2c2.6,7.8,8.4,14.6,15.8,18.4c1.5-3.8,2.1-7.9,1.9-12
							c4.4,3.6,8.8,7.2,13.2,10.7c0.9,0.7,2,1.5,3,0.9c0.8-0.4,1-1.5,1.1-2.3c0.5-3.4,0.9-6.8,1.3-10.2c4.3,3.4,8.7,6.7,13,10.1
							c0.9,0.7,2.1,1.4,3.1,0.9c1.1-0.5,1.2-1.9,1.1-3.1c-0.3-3.6-1.4-7.2-3.2-10.4c4.3,6,9.4,12.4,16.7,13.6
							c-2.5-5.8-4.9-11.5-7.4-17.3c-1.9-4.4-3.8-8.9-6.5-12.8c-5.3-7.6-13.5-13-22.6-14.8s-18.8,0.1-26.5,5.1"/>
					</g>
					<g>
						<path class="st34" d="M95.6,217.7c-5.2,7.2-4.6,15.6-4.4,18.6c1.1,14.3,11.1,25.9,13.7,24.9c0.5-0.2,0.9-2.1,1.7-6
							c0.5-2.5,0.8-4.6,1-6.2c0.6,2.1,1.5,5,2.8,5c1.4,0,2.5-3.6,3.5-7c5.7-20.2,5.2-28.7,4.2-34.5c-0.5-3-1.2-5.2-3-6.1
							c-3.1-1.6-7.9,1.7-11.7,4.4C100.6,212.7,97.9,214.5,95.6,217.7z"/>
					</g>
				</g>
				<g class="st41">
					<defs>
						<path id="SVGID_29_" class="st41" d="M168.7,408.1c-4.8,11.2-7.5,79.7-7.4,88.5c0.1,4.4,0.8,5.5-0.3,7.4
							c-3.2,5.4-13.2,1.9-34,1.3c-15.8-0.4-31.7-1.4-47.3-3.8c-0.9-0.1-1.9-0.3-2.6-1c-0.5-0.5-0.8-1.3-1-2
							c-1-3.5-1.6-102.3,1.7-134.3c7,1.1,14.6-1.4,18.9-7.1c3.2-4.2,4.6-9.4,6.1-14.4c1.6-5.1,3.8-10.5,6.9-14.8
							c2.5-3.5,5.6-6.4,9.6-8.1c1.9-0.8,5.1-2.3,9-1.9c2.4,0.3,4.5,1.1,5.4,1.5c2,0.8,3,1.6,3.2,1.7c1.3,1,2.1,2.2,2.6,3l-0.1,0
							c-4.2-0.7-8.6-1.2-12.5,0.1c-0.4,0.1-0.7,0.3-1.1,0.4c-2.1,0.9-3.8,2.4-5.2,4.1c-3,3.8-4.3,9.2-4.6,14.1
							c0,0.6-1.1,12,4.8,20.1c5.8,8,15.3,8.3,56.1,7.8c1,4,2,10,0.8,16.8C176.5,394.9,174.1,395.3,168.7,408.1z"/>
					</defs>
					<clipPath id="SVGID_2_">
						<use xlink:href="#SVGID_29_"  style="overflow:visible;"/>
					</clipPath>
					<g class="st33">
						<g>
							<path class="st34" d="M68.4,426.1c32.6,10.2,67.1,3.4,100.2,9.6c4.2,0.8,6-5.6,1.8-6.4c-33.1-6.1-67.7,0.6-100.2-9.6
								C66.1,418.4,64.3,424.9,68.4,426.1L68.4,426.1z"/>
						</g>
					</g>
					<g class="st33">
						<g>
							<path class="st34" d="M180.3,403.6c-38.6,3-77.1-1.1-115.5-5.3c-4.3-0.5-4.2,6.2,0,6.7c38.3,4.2,76.9,8.3,115.5,5.3
								C184.5,409.9,184.6,403.2,180.3,403.6L180.3,403.6z"/>
						</g>
					</g>
					<g class="st33">
						<g>
							<path class="st34" d="M61.5,383.2c41,1.2,82.1,2.4,123.1,3.6c4.3,0.1,4.3-6.5,0-6.7c-41-1.2-82.1-2.4-123.1-3.6
								C57.2,376.4,57.2,383.1,61.5,383.2L61.5,383.2z"/>
						</g>
					</g>
					<g class="st33">
						<g>
							<path class="st34" d="M142.7,357.4c-19-0.9-38.1-1.9-57.1-2.8c-4.3-0.2-4.3,6.4,0,6.7c19,0.9,38.1,1.9,57.1,2.8
								C147,364.2,147,357.6,142.7,357.4L142.7,357.4z"/>
						</g>
					</g>
					<g class="st33">
						<g>
							<path class="st34" d="M126.2,338.1c-2.8-3.8-6.7-4.6-11.1-5.9c-6-1.7-12-3.4-18-5.2c-4.1-1.2-5.9,5.2-1.8,6.4
								c4.2,1.2,8.4,2.4,12.6,3.6c3.3,1,10.4,1.5,12.5,4.4C123,344.8,128.8,341.5,126.2,338.1L126.2,338.1z"/>
						</g>
					</g>
					<g class="st33">
						<g>
							<path class="st34" d="M146.5,323.5c-3.7-4.2-7.3-8.6-10.6-13.1c-2.5-3.4-8.3-0.1-5.7,3.4c3.7,5,7.6,9.8,11.7,14.4
								C144.7,331.4,149.3,326.7,146.5,323.5L146.5,323.5z"/>
						</g>
					</g>
				</g>
			</g>
			<g>
				<g class="st37">
					<g>
						<g>
							<path class="st34" d="M222.5,329.5c3,4.5,5,9.4,6.1,14.7c0.2,1,1.8,0.6,1.6-0.4c-1.2-5.4-3.3-10.5-6.3-15.1
								C223.4,327.8,221.9,328.6,222.5,329.5L222.5,329.5z"/>
						</g>
					</g>
					<g>
						<g>
							<path class="st34" d="M223.4,327.3c5,0.6,9.4,2.8,12.8,6.5c0.7,0.8,1.9-0.4,1.2-1.2c-3.7-4-8.5-6.4-14-7
								C222.3,325.6,222.3,327.2,223.4,327.3L223.4,327.3z"/>
						</g>
					</g>
					<g>
						<g>
							<path class="st34" d="M99.8,259.4c-4.7-1.6-9.5,2.2-8.9,7.2c0.1,1,1.8,1.1,1.7,0c-0.5-3.9,3-6.9,6.8-5.6
								C100.4,261.3,100.9,259.7,99.8,259.4L99.8,259.4z"/>
						</g>
					</g>
					<g>
						<g>
							<path class="st34" d="M153.1,420.9c6.2-2.7,11.4-6.9,15.4-12.4c0.6-0.9-0.8-1.7-1.4-0.8c-3.9,5.2-8.9,9.2-14.8,11.8
								C151.2,419.9,152.1,421.4,153.1,420.9L153.1,420.9z"/>
						</g>
					</g>
					<g>
						<g>
							<path class="st34" d="M104.4,283.3c2.6,5.2,5.3,9.5,10.6,12.2c6.4,3.2,13.4,5.1,20.4,6.4c1,0.2,1.5-1.4,0.4-1.6
								c-6.1-1.1-12-2.7-17.7-5.2c-6.2-2.7-9.3-6.8-12.3-12.7C105.4,281.5,104,282.3,104.4,283.3L104.4,283.3z"/>
						</g>
					</g>
					<g>
						<g>
							<path class="st34" d="M156.3,286.2c-3.1,0.3-6.2,0.6-8.9-1.2c-2.1-1.5-3.5-3.7-4.8-5.9c-0.5-0.9-2-0.1-1.4,0.8
								c1.5,2.5,3.1,5.1,5.6,6.7c2.9,1.8,6.3,1.6,9.5,1.2C157.3,287.8,157.4,286.1,156.3,286.2L156.3,286.2z"/>
						</g>
					</g>
				</g>
				
					<ellipse transform="matrix(0.9985 -5.512734e-02 5.512734e-02 0.9985 -13.9002 8.6082)" class="st34" cx="149.1" cy="256.3" rx="4" ry="6.9"/>
				<g>
					<g>
						<path class="st34" d="M155.7,245.6c-3.5-2.5-7.8-2.9-11.7-1.1c-1,0.4-0.1,1.9,0.8,1.4c3.3-1.5,7-1.1,10,1.1
							C155.7,247.7,156.5,246.2,155.7,245.6L155.7,245.6z"/>
					</g>
				</g>
			</g>
		</g>
	</g>
	<g>
		<g>
			<g>
				<path class="st34" d="M266.1,177.5c-0.4-8.2-1.9-16.2-4.6-23.9c-0.3-1-2-0.6-1.6,0.4c2.6,7.6,4.2,15.4,4.6,23.5
					C264.5,178.6,266.2,178.6,266.1,177.5L266.1,177.5z"/>
			</g>
		</g>
		<g>
			<g>
				<path class="st34" d="M275.3,177.1c1.6-6.3,3-12.6,4-19.1c0.2-1-1.4-1.5-1.6-0.4c-1.1,6.4-2.4,12.8-4,19.1
					C273.5,177.7,275.1,178.2,275.3,177.1L275.3,177.1z"/>
			</g>
		</g>
		<g>
			<g>
				<path class="st34" d="M287.9,175.6c2.7-3.8,5.3-7.7,8-11.5c0.6-0.9-0.8-1.7-1.4-0.8c-2.7,3.8-5.3,7.7-8,11.5
					C285.8,175.7,287.3,176.5,287.9,175.6L287.9,175.6z"/>
			</g>
		</g>
		<g>
			<g>
				<path class="st34" d="M250.7,184.1c-4.2-1-8.3-2.5-12.2-4.5c-1-0.5-1.8,1-0.8,1.4c4,2,8.2,3.6,12.6,4.6
					C251.3,186,251.7,184.4,250.7,184.1L250.7,184.1z"/>
			</g>
		</g>
		<g>
			<g>
				<path class="st34" d="M259.2,178.7c-4-5.2-8.2-10.3-12.6-15.2c-0.7-0.8-1.9,0.4-1.2,1.2c4.3,4.8,8.4,9.7,12.3,14.8
					C258.4,180.4,259.8,179.6,259.2,178.7L259.2,178.7z"/>
			</g>
		</g>
	</g>
</g>
</svg>
