<svg xmlns="http://www.w3.org/2000/svg" viewBox="0 0 1122.21 1570.62"><defs><style>.cls-1{isolation:isolate;}.cls-2,.cls-21{fill:#2f1a48;}.cls-12,.cls-2,.cls-35{mix-blend-mode:soft-light;}.cls-3{fill:#ecebeb;}.cls-4{fill:#76599a;}.cls-5{fill:#61adbf;}.cls-10,.cls-11,.cls-15,.cls-16,.cls-18,.cls-22,.cls-24,.cls-28,.cls-31,.cls-33,.cls-6,.cls-7,.cls-8{fill:none;stroke-linecap:round;}.cls-6,.cls-7,.cls-8{stroke:#81bbce;}.cls-10,.cls-11,.cls-15,.cls-16,.cls-18,.cls-28,.cls-31,.cls-33,.cls-6,.cls-7,.cls-8{stroke-miterlimit:10;}.cls-15,.cls-18,.cls-31,.cls-33,.cls-6,.cls-7,.cls-8{stroke-width:1.84px;}.cls-7{stroke-dasharray:4.66 4.66;}.cls-16,.cls-8{stroke-dasharray:4.61;}.cls-9{fill:#3a7297;}.cls-10,.cls-11,.cls-16{stroke:#4587b4;}.cls-10,.cls-11,.cls-16,.cls-22,.cls-24,.cls-28{stroke-width:0.92px;}.cls-11{stroke-dasharray:4.69 4.69;}.cls-12,.cls-13{fill:#fff;}.cls-14{fill:#886ba5;}.cls-15,.cls-22,.cls-28{stroke:#2f1a48;}.cls-17{fill:#5f3c8b;}.cls-18{stroke:#3a7297;}.cls-19{fill:#e0a98c;}.cls-20{fill:#dad854;}.cls-22,.cls-24{stroke-linejoin:round;}.cls-23{fill:#f2d789;}.cls-24{stroke:#e2af89;}.cls-25{fill:#c6516c;}.cls-26{fill:#e6bba5;}.cls-27{fill:#db9a8b;}.cls-29{fill:#cb6668;}.cls-30{fill:#4c2c74;}.cls-31{stroke:#3e235e;}.cls-32{fill:#563284;}.cls-33{stroke:#4c2c74;}.cls-34{fill:#dea491;}.cls-35{fill:#32272b;opacity:0.6;}</style></defs><title>Imagen_1</title><g class="cls-1"><g id="Layer_1" data-name="Layer 1"><ellipse class="cls-2" cx="506.48" cy="1188.14" rx="445.02" ry="131.72"/><ellipse class="cls-2" cx="550.06" cy="1335.67" rx="103.77" ry="74.73"/><path class="cls-3" d="M497.45,1204.86s-28.09,2.1-42.4,20-9.87,41.72,4.63,55.3,38.57,27.38,44.66,39.74,40.24,94,64.75,84.64,23-27,13.12-58-15.55-65.4-15.55-65.4Z"/><path class="cls-4" d="M539.53,1385.24c19.7-14.66,38.46-13.27,49.24-10.47,1.06,14.21-3.92,23.7-19.68,29.74C559.93,1408,549.42,1398.81,539.53,1385.24Z"/><path class="cls-4" d="M455.05,1224.83a47.43,47.43,0,0,1,16.15-12.54c4.5,17.21,12,54.87-1.37,76.4-3.63-2.85-7.1-5.71-10.15-8.56C445.18,1266.55,440.73,1242.69,455.05,1224.83Z"/><path class="cls-5" d="M825.66,1151.23c0,.53-52.67,46.83-95.28,72.19-139.7,83.15-206.3,28.12-206.3,28.12-64.9,39.26-370.51-64.9-399.53-155.37-.44-1.3-.81-2.61-1.15-3.91-23.59-88.33,120.79-147.39,120.79-147.39l87.87,7.42,230.66,19.42,68.09,5.75s74.58-10.34,138.36-3.85l5.28.56,3,.37,4.06.56q6.06.89,11.89,1.95c1.49.28,3,.59,4.44.9q3.54.75,6.89,1.59a5.08,5.08,0,0,0,.65.15c3.51.9,6.89,1.86,10.15,2.95,1.09.37,2.17.74,3.23,1.12.4.12.81.28,1.21.43.9.31,1.77.65,2.64,1l-2.55-.93a59.47,59.47,0,0,0,5.25,3.32c14.15,8.17,23.09,18.91,28.24,31C872.28,1062.59,840.93,1125.07,825.66,1151.23Z"/><path class="cls-6" d="M198,1141.27l1.94,1.24"/><path class="cls-7" d="M203.86,1145c32.12,19.79,189.7,111.4,323.83,91.16"/><path class="cls-6" d="M530,1235.78l2.28-.38"/><path class="cls-8" d="M588.94,1250.49s169.53-43.7,226.82-121.3"/><path class="cls-9" d="M171.65,988c-32.78,26.44-61.35,63.7-47.1,108.12,8.58,26.77,41.37,54.73,85,79.82C241.8,1096.82,189.74,1013.43,171.65,988Z"/><path class="cls-10" d="M167.18,1005.89s.42.68,1.17,2"/><path class="cls-11" d="M170.64,1012c10.72,19.59,41.8,83.32,28.45,141.85"/><path class="cls-10" d="M198.55,1156.09c-.19.74-.38,1.49-.58,2.23"/><path class="cls-12" d="M332.06,952.29c-61.67,93.76-155.46,127.8-208.66,140-23.59-88.33,120.79-147.39,120.79-147.39Z"/><path class="cls-13" d="M581.05,1160.64s27.15-7.51,46.66,4.47,23.38,35.94,14.31,53.62-27.06,38.79-28.61,52.48-6.11,102.11-32.36,101.54-30.81-17.68-31.95-50.2-7.46-66.8-7.46-66.8Z"/><path class="cls-14" d="M602.37,1344.64c-23.49-7.15-40.68.49-49.88,6.76,3.8,13.74,11.69,21,28.56,21.35C590.86,1373,597.64,1360.74,602.37,1344.64Z"/><path class="cls-14" d="M627.71,1165.11a47.52,47.52,0,0,0-19.44-6.34c1.57,17.72,7.23,55.69,27.09,71.44,2.46-3.91,4.76-7.77,6.66-11.48C651.09,1201.05,647.22,1177.09,627.71,1165.11Z"/><path class="cls-15" d="M545.79,1283.5s-.84,81.75,21.86,86.88"/><path class="cls-9" d="M825.66,1151.23c-33.36-27.1-47.95-69.06-53.72-108.13a345.84,345.84,0,0,1-2.77-69.49l5.28.56,3,.37,4.06.56q6.06.89,11.89,1.95c1.49.28,3,.59,4.44.9q3.54.75,6.89,1.59a5.08,5.08,0,0,0,.65.15q5.26,1.35,10.15,2.95c1.09.37,2.17.74,3.23,1.12.4.12.81.28,1.21.43,0,0,.06,0,.09.06a59.47,59.47,0,0,0,5.25,3.32c14.15,8.17,23.09,18.91,28.24,31C872.28,1062.59,840.93,1125.07,825.66,1151.23Z"/><path class="cls-16" d="M782.77,993.71S781,1085.43,821.27,1136"/><path class="cls-17" d="M557.72,1151.24s22.29,1,23.33,14.59-29.31,90.7-39.41,95.11-17.57-9.41-17.57-9.41S561.47,1183,557.72,1151.24Z"/><path class="cls-15" d="M541.64,1260.94s25-37.42,32.19-66.26,3.21-37.61,3.21-37.61"/><path class="cls-18" d="M556.42,1142.5s2.61-25.28,23.25-35.38,112.91-71.43,112.91-71.43"/><path class="cls-18" d="M310.34,1031s237,72.32,246.08,111.49-32.35,109-32.35,109"/><path class="cls-19" d="M671.06,686.64l1.42,204.75s62.69,3.75,103.5-11.95,92.33-35.74,96-31.77-12.89,15.6-12.89,15.6,21.82-13,24.46-10.31S868,871.14,868,871.14s17.52-10.46,20.82-7.87-12.89,14.81-12.89,14.81,10.15-5.29,13.34-1.65-82.61,87.28-153.72,80.38-121.65-14.76-121.65-14.76l21.85-232.56Z"/><path class="cls-20" d="M600.76,551.29S668.49,596.85,685.14,703L619,717.52Z"/><path class="cls-13" d="M899.51,887.11a100.13,100.13,0,0,0-11.62,18.82,164.31,164.31,0,0,0-8.15,20,200.5,200.5,0,0,0-5.88,20.84,125.17,125.17,0,0,0-3.05,21.84,47.81,47.81,0,1,1-86-30.27,125.53,125.53,0,0,0,11.31-18.93,203.25,203.25,0,0,0,8.47-19.93,164.26,164.26,0,0,0,6.2-20.73,99.39,99.39,0,0,0,2.73-21.95,48.38,48.38,0,1,1,86,30.27Z"/><path class="cls-14" d="M854,948l-11.69-1.63,2.56-11.52a6.21,6.21,0,1,0-12.13-2.69L830,944.64l-12.68-1.76a6.22,6.22,0,0,0-1.71,12.32l11.69,1.62-2.56,11.51a6.22,6.22,0,0,0,4.72,7.42,6.33,6.33,0,0,0,1.21.14,6.22,6.22,0,0,0,6.21-4.87l2.77-12.49,12.68,1.76q.36,0,.72.06A6.22,6.22,0,0,0,854,948Z"/><path class="cls-21" d="M881.17,845.34l-11.68-1.66,2.6-11.51A6.22,6.22,0,0,0,860,829.44l-2.82,12.49-12.67-1.8a6.22,6.22,0,0,0-1.75,12.31l11.68,1.66-2.6,11.51a6.22,6.22,0,0,0,4.7,7.43,6.35,6.35,0,0,0,1.21.15,6.2,6.2,0,0,0,6.22-4.85l2.82-12.49,12.67,1.8a4.37,4.37,0,0,0,.72.06,6.22,6.22,0,0,0,1-12.37Z"/><path class="cls-21" d="M850.6,887.56a2.07,2.07,0,0,0-2.4,1.69l-1.27,7.32a2.07,2.07,0,0,0,1.69,2.39,2.22,2.22,0,0,0,.68,0,2.07,2.07,0,0,0,1.71-1.69l1.27-7.33A2.06,2.06,0,0,0,850.6,887.56Z"/><path class="cls-21" d="M846.35,904.71a2.05,2.05,0,0,0-2.39,1.68l-1.27,7.33a2.06,2.06,0,0,0,1.68,2.39,2.29,2.29,0,0,0,.69,0,2.08,2.08,0,0,0,1.71-1.7L848,907.1A2.07,2.07,0,0,0,846.35,904.71Z"/><path class="cls-19" d="M808.15,874.1s18.86,1.32,24.21,4.76S788.15,893,788.15,893,791.63,873.5,808.15,874.1Z"/><path class="cls-13" d="M484.88,498.93s-208.1,40-240.7,445.93c0,0,176.64,127.14,386.63,32.6,0,0,69-272-30-426.17Z"/><path class="cls-15" d="M264,957.21s141.56,94.94,330.12,34.67"/><path class="cls-22" d="M634.46,626.23s30.9,105.87,18.19,200.44"/><path class="cls-23" d="M573.66,759.92,551.27,775c-6.17,4.16-13.38-2.56-12.2-11.36l4.27-31.94-18.1-22.62c-5-6.23-2.24-17.1,4.66-18.38l25-4.66L566.11,657c3.09-8,12-8,15.09,0L592.39,686l25,4.66c6.9,1.28,9.65,12.15,4.66,18.38L604,731.7l4.28,31.94c1.17,8.8-6,15.52-12.21,11.36Z"/><path class="cls-24" d="M617.42,690.7c6.9,1.28,9.65,12.15,4.66,18.38L604,731.7l4.28,31.94c1.17,8.8-6,15.52-12.21,11.36l-22.38-15.08L551.27,775c-6.17,4.16-13.38-2.56-12.2-11.36l4.27-31.94-18.1-22.62"/><path class="cls-25" d="M358.52,755.68s24.68,9.73,72.88-3,75.08-39.14,75.08-39.14Z"/><path class="cls-26" d="M857.84,993.63c.94,3.81-28.39,24.11-96.18,26.78-52.14,2.05-195.59-7.57-279.6-34.23-25.2-8-45.07-17.54-55.53-28.74-14.09-15.09-24.11-41.84-31.25-71.57-15.8-66-17.32-146.71-17.32-146.71l116.76-33.3,17,175.35,255.71,86.38s42.14-17.76,46.24-14.56-14.56,17.75-14.56,17.75,47.8-15.48,48.7-9.12c.65,4.47-6.24,8.91-10.49,11.17,5.31-2.48,15.55-6.76,16.88-3.41,1.83,4.53-10.49,15-10.49,15h2.49s9.87-6.52,11.45-3.38-7.14,11.85-7.82,12.54C850.4,993.32,856.91,990,857.84,993.63Z"/><path class="cls-27" d="M482.06,986.18c-25.2-8-45.07-17.54-55.53-28.74-14.09-15.09-24.11-41.84-31.25-71.57C424.33,894.09,480,918.64,482.06,986.18Z"/><path class="cls-28" d="M634.46,1014.11s135.69,17.13,191.59-3.47"/><path class="cls-20" d="M424.73,527.72c21.25-6.08,56.79-4.56,81.75,185.8l-148,42.16S337.64,552.64,424.73,527.72Z"/><path class="cls-22" d="M406.49,536.46c-46,21-56.59,155.86-48,219.22L459.29,727"/><path class="cls-26" d="M503.39,435.41l-18.51,63.52s41.88,74.75,115.88,52.36l-10.71-82.77Z"/><path class="cls-29" d="M599.91,544.71l-9.86-76.19-86.66-33.11-3.11,10.67C511.78,467.27,548.08,527,599.91,544.71Z"/><path class="cls-30" d="M729.9,139.18S808.88,92.7,848,155.5s-13,201.49-33.75,233-41.21,93.13-39,107c0,0-69-14.4-66.58-85.36S729.9,139.18,729.9,139.18Z"/><path class="cls-17" d="M800.71,123.5c3,38.72,14.43,121.93,57,140.14,7.1-40.38,7.12-81.22-9.65-108.14C835.15,134.85,818,126.06,800.71,123.5Z"/><path class="cls-31" d="M741.73,271.78S809,286.83,789.66,373.45c-6.5,29.07-4.88,48.91.15,62.44"/><path class="cls-31" d="M762.71,135.66s99.92,13,67.33,161.72c-6.11,27.88-5.24,45.64.21,56.09"/><path class="cls-13" d="M729.9,139.18s11.21-21.86,32.81-3.52,23.92,30.84,9.72,42.32S729.9,139.18,729.9,139.18Z"/><path class="cls-30" d="M500,127.27S435.37,49.85,363.9,101.74s-51,142.26-37.43,172S415,401.23,373.26,453.13c0,0,16.23,53.19,64.69,36.38S496.63,361,496.63,361Z"/><path class="cls-17" d="M397.71,85.87c-10.93,2.51-22.28,7.5-33.81,15.87-71.47,51.9-51,142.26-37.43,172,3.5,7.65,11.08,19.83,19.67,34.57C427.06,260.69,410,139.62,397.71,85.87Z"/><path class="cls-31" d="M447.6,354.54s18.07,130.78-74.34,98.59"/><path class="cls-31" d="M468.43,114s-123,2.62-155.48,134.84"/><path class="cls-31" d="M426.49,228.13s-73.82-1.85-71.74,95.26"/><path class="cls-13" d="M450.37,171S430.68,153.85,438,143.14s32.13-38.09,49.28-33.19S500,127.27,500,127.27Z"/><path class="cls-26" d="M769.18,297.19l-1.87,26.44-.43,6.28-1.83,25.73A30.83,30.83,0,0,0,782.89,361c17.68-.32,31.72-15.51,31.38-33.93s-14.9-33.07-32.58-32.75A30.74,30.74,0,0,0,769.18,297.19Z"/><path class="cls-32" d="M789.64,349.81a4.8,4.8,0,1,1-4.8-4.8A4.8,4.8,0,0,1,789.64,349.81Z"/><path class="cls-27" d="M767.31,323.63l-.43,6.28c23,12.46,35.27-5.28,35.42-5.45a3,3,0,0,0-.67-4,2.63,2.63,0,0,0-3.82.66C797.37,321.74,787.33,335.92,767.31,323.63Z"/><ellipse class="cls-26" cx="615.24" cy="310.85" rx="159.99" ry="188.09"/><path class="cls-26" d="M458.44,300.21l1.86,26.45.44,6.28,1.82,25.73A30.9,30.9,0,0,1,444.72,364c-17.67-.32-31.71-15.51-31.37-33.93s14.9-33.07,32.57-32.75A31,31,0,0,1,458.44,300.21Z"/><path class="cls-32" d="M452.38,354.61a4.8,4.8,0,1,1-4.8-4.8A4.8,4.8,0,0,1,452.38,354.61Z"/><path class="cls-27" d="M460.3,326.66l.44,6.28c-23,12.46-35.28-5.28-35.43-5.45a3,3,0,0,1,.68-4,2.63,2.63,0,0,1,3.81.65C430.25,324.77,440.28,338.94,460.3,326.66Z"/><path class="cls-27" d="M565.23,489.51A86.7,86.7,0,1,0,459.29,352.8C471.79,417.26,512.42,469.1,565.23,489.51Z"/><path class="cls-27" d="M705.54,417.35a86.24,86.24,0,0,0,9.86,40.12c32-30.2,53.8-74.52,58.73-124.91A86.73,86.73,0,0,0,705.54,417.35Z"/><path class="cls-33" d="M594.64,97.18a51.64,51.64,0,0,1,24,41.8"/><path class="cls-33" d="M642,91.27s-26.22,15.17-24.65,38.14"/><path class="cls-33" d="M617.31,80.92s-4.56,28.47-1.94,45.33"/><path class="cls-32" d="M420.82,322.94S563.2,338.44,619,186.4c0,0,18.46,62.17,117.92,69.14,0,0,15.77,63.17,38.36,64.37,0,0,51.14-77.67-14.92-158.76s-145.07-38.39-145.07-38.39S532.88,84.5,470.8,140.24,420.82,322.94,420.82,322.94Z"/><path class="cls-17" d="M471.06,140c21.39,16.8,67.92,40.52,159.75,39.51,56.53-.62,94.4-13.88,119.55-29.57-63.79-65.74-135.12-27.2-135.12-27.2S533.12,84.62,471.06,140Z"/><path class="cls-33" d="M419.87,300.77S577,290.17,615.93,155.5"/><path class="cls-33" d="M589.53,128.33s-71.94,126.26-178,125.11"/><path class="cls-33" d="M547.36,113c-17.82,30.54-62.89,93.87-133.64,101.45"/><path class="cls-33" d="M793.35,236.53S647.17,248,615.93,155.5"/><path class="cls-33" d="M626.26,135.29s54,79.86,159.13,67.45"/><path class="cls-33" d="M647.1,113s55.55,78.5,125.33,65"/><path class="cls-33" d="M765.05,237s-2.53,56.09,17,69.78"/><path class="cls-15" d="M421,309s-2.75-85.31,20.4-127.6"/><path class="cls-15" d="M775.23,319.91s29.93-47.36,13.55-106.2"/><path class="cls-15" d="M501.25,442.76s52.46,73.43,144.82,52.68"/><path class="cls-21" d="M626.81,338.46h-.07a3.94,3.94,0,0,1-3.85-4,13.35,13.35,0,0,0-26.68-.76,4,4,0,0,1-7.91-.23A20.66,20.66,0,0,1,595,318.83a21.5,21.5,0,0,1,15.21-5.71,21.11,21.11,0,0,1,20.64,21.55A3.93,3.93,0,0,1,626.81,338.46Z"/><path class="cls-32" d="M577,296.38,629.69,278s4.09,6.62-.55,10.39-35,17-44.9,15C577.25,302,577,296.38,577,296.38Z"/><path class="cls-21" d="M722.8,338.46h-.08a3.93,3.93,0,0,1-3.84-4,13.35,13.35,0,0,0-26.68-.76,4,4,0,0,1-7.91-.23,20.66,20.66,0,0,1,6.65-14.63,21.49,21.49,0,0,1,15.2-5.71,21.12,21.12,0,0,1,20.65,21.55A3.93,3.93,0,0,1,722.8,338.46Z"/><path class="cls-32" d="M740.31,301.67,688.66,279.9s-2.21,7.53,1.68,11.22,37,19.86,45.14,18.32C741.23,308.36,740.31,301.67,740.31,301.67Z"/><path class="cls-34" d="M673.33,358.14c-3.83,3.25-20.52,3.55-25,.38-1.08-.77-1.38-3.61-1.19-7.62.77-13,7.56-37.88,14.15-37.93a2.7,2.7,0,0,1,1.44.41C670.59,317.53,677,355.11,673.33,358.14Z"/><path class="cls-35" d="M673.33,358.14c-3.83,3.25-20.52,3.55-25,.38-1.08-.77-1.38-3.61-1.19-7.62,17.83-4.58,17.34-25.5,15.59-37.52C670.59,317.53,677,355.11,673.33,358.14Z"/><path class="cls-13" d="M684.28,377.73c-23.28,5-58-.6-58-.6s3.94,26.87,27.93,27C685.13,404.26,684.28,377.73,684.28,377.73Z"/></g></g></svg>