<svg id="Layer_1" data-name="Layer 1" xmlns="http://www.w3.org/2000/svg" viewBox="0 0 500 500"><defs><style>.cls-1{fill:#3b9c80;}.cls-2{fill:#fff;}.cls-3{fill:#a3c1cc;}.cls-4{fill:#84acbf;}.cls-5{fill:#6990aa;}.cls-6{fill:#5e84a2;}.cls-7{fill:#e2ab5f;}.cls-8{fill:#82bddf;}.cls-9{fill:#61afcf;}.cls-10{fill:#375f77;}.cls-11{fill:#4d718c;}.cls-12{fill:#e9c2a9;}.cls-13{fill:#070308;}</style></defs><title>metas</title><rect class="cls-1" width="500" height="500"/><path class="cls-2" d="M140.9,416h18.26l8,35,9-35H193.9v56.65H182.24V425.22l-11.58,47.44h-9L151,425.22v47.44H140.9Z"/><path class="cls-2" d="M235.82,453.65H213.87V456c0,3.76.5,6.26,1.53,7.53a4.87,4.87,0,0,0,4,1.9q5.33,0,6-7.13l10.42.66Q233,473.53,219.2,473.53q-8.55,0-13-5.77t-4.43-15.44q0-10.92,4.7-16.66a15.5,15.5,0,0,1,12.63-5.75A15.68,15.68,0,0,1,231,435Q235.82,440.08,235.82,453.65Zm-11-6.77c0-.49,0-.88,0-1.16q0-8.09-5.46-8.09T214,446.88Z"/><path class="cls-2" d="M244.41,417.87l11.38-.37v13.24h7.71V440h-7.71v15.4a51.27,51.27,0,0,0,.18,5.54,3.27,3.27,0,0,0,1.25,2.12,5.71,5.71,0,0,0,3.55.85c.88,0,2,0,3.32-.08v8.88a33.08,33.08,0,0,1-7.14.87c-3.54,0-6.26-.68-8.14-2a9,9,0,0,1-3.61-5.11,43.48,43.48,0,0,1-.79-9.75V440h-4.65v-9.21h4.65Z"/><path class="cls-2" d="M280.69,444.06,269.61,443a13.58,13.58,0,0,1,5.37-9.71,18.87,18.87,0,0,1,11.56-3.4q5.9,0,9.46,2.26a9.91,9.91,0,0,1,4.5,5.25,33.2,33.2,0,0,1,.94,9.25v16.73q0,7.8.7,9.3H291.27a23.3,23.3,0,0,1-.58-6.44q-3.85,7.32-11.48,7.31a11,11,0,0,1-7.95-2.93q-3.08-2.93-3.07-8.53,0-7,4.64-10.85t16.9-4.59v-1.57c0-2.8-.28-4.73-.84-5.81a3.36,3.36,0,0,0-3.29-1.62Q281.15,437.63,280.69,444.06Zm9,8.59q-5.1.59-7.28,2.26t-2.18,5.65q0,5.29,3.9,5.29,2.11,0,3.84-2.38t1.72-8.75Z"/><path class="cls-2" d="M337.67,440.82l-8.34,2.49q-1.66-5.69-6.14-5.68-3.66,0-3.66,3.65a3.8,3.8,0,0,0,1.37,3.16,22.5,22.5,0,0,0,5.65,2.57,45,45,0,0,1,7.05,3,10.45,10.45,0,0,1,3.78,3.88,11.49,11.49,0,0,1,1.54,5.95,12.87,12.87,0,0,1-4.19,9.76q-4.2,3.95-11.71,3.94-14.16,0-15.69-12.49l9.3-1.5q1.15,6.27,6.6,6.27,4.65,0,4.65-3.9a3.8,3.8,0,0,0-1.37-3.16,18.55,18.55,0,0,0-5.32-2.32q-7.21-2.32-9.91-5.6a11.61,11.61,0,0,1-2.7-7.6,12.14,12.14,0,0,1,4.25-9.71,15.81,15.81,0,0,1,10.65-3.65Q334.64,429.87,337.67,440.82Z"/><path class="cls-3" d="M180.7,383.5H109.57V358.41a13.22,13.22,0,0,1,13.22-13.22h44.7a13.21,13.21,0,0,1,13.21,13.22Z"/><path class="cls-4" d="M251.84,383.5H180.7V325.6a13.22,13.22,0,0,1,13.22-13.22h44.7a13.22,13.22,0,0,1,13.22,13.22Z"/><path class="cls-5" d="M323,383.5H251.84V290.35a13.22,13.22,0,0,1,13.22-13.22h44.69A13.22,13.22,0,0,1,323,290.35Z"/><path class="cls-6" d="M394.1,383.5H323V236.88a13.22,13.22,0,0,1,13.22-13.22h44.69a13.22,13.22,0,0,1,13.22,13.22Z"/><path class="cls-7" d="M342.28,73.89h71.54a2.4,2.4,0,0,0,1.59-4.21L396.83,53.32a2.4,2.4,0,0,1,0-3.61l18.58-16.36a2.4,2.4,0,0,0-1.59-4.21H342.28Z"/><path class="cls-8" d="M348,94.84l-77.51,42.09c-6.91,3.75-8.8,10.35-11.22,18.85l-15.41,54.5,37.77-15.47,14.66-44.32,39-23.69A28.55,28.55,0,0,0,348,94.84Z"/><path class="cls-9" d="M348,94.84l-9,4.85a28.47,28.47,0,0,1-13.19,18.92L290.31,140.2a11,11,0,0,0-4.74,6l-5.08,15.34a57.51,57.51,0,0,1-32.8,35.16l-3.85,13.63,37.77-15.48,14.66-44.31,39-23.7A28.55,28.55,0,0,0,348,94.84Z"/><path class="cls-10" d="M281.61,194.81l22.32,26.38c3.7,4.89,6.92,8.34,6.25,13.72L305,277.11H291.34l-3.56-36.28a6.09,6.09,0,0,0-3.63-5l-40.31-25.57Z"/><path class="cls-11" d="M243.84,210.29l-2.18,40c-.14,3.31.33,5.56-1,8L215,312.38h14.45l38.64-51.33c2.26-2.64,2.52-6.2,3.28-9.49l10.25-56.75Z"/><path class="cls-12" d="M278.84,103.47l6.34,12.37A11.83,11.83,0,0,1,280,131.76l-4.9,2.51a11.83,11.83,0,0,1-15.92-5.14l-6.34-12.37A11.83,11.83,0,0,1,258,100.84l4.9-2.51A11.83,11.83,0,0,1,278.84,103.47Z"/><path class="cls-13" d="M419,65.57l-16-14.06,16-14a7.88,7.88,0,0,0-5.21-13.8H347.75V20.82a5.48,5.48,0,0,0-10.95,0V94.67l-45,24.43a17.35,17.35,0,0,0-1.78-5.76L283.71,101a17.33,17.33,0,0,0-23.29-7.51L255.52,96A17.3,17.3,0,0,0,248,119.26l6.34,12.37a17.18,17.18,0,0,0,6.23,6.78c-3.36,4.53-5,10.1-6.6,15.88l-1.18,4.18a5.48,5.48,0,1,0,10.54,3l1.18-4.17c2.4-8.46,3.87-13,8.57-15.54l8.41-4.57,1-.53c.34-.18.66-.38,1-.58l60-32.55a23.19,23.19,0,0,1-11.05,18.61l-39,23.68-.13.08-12.14,7.38a5.47,5.47,0,0,0,5.24,9.6L277.2,190.7l-6.73,2.76-18.3,7.5,5.27-18.65a5.48,5.48,0,0,0-10.54-3l-8.33,29.47a5.29,5.29,0,0,0-.2,1.19l-2.18,40c-.06,1.53.26,4.42-.45,5.91L211.53,306.9h-17.6a18.72,18.72,0,0,0-18.7,18.7v15.8a18.55,18.55,0,0,0-7.74-1.68h-44.7a18.71,18.71,0,0,0-18.69,18.69V378H91a5.48,5.48,0,0,0,0,11H413.82a5.48,5.48,0,0,0,0-11H399.58V236.88a18.72,18.72,0,0,0-18.7-18.7H347.75V122.65a34.14,34.14,0,0,0,5.51-29.26,5.47,5.47,0,0,0-5.51-4v-10h66.07A7.88,7.88,0,0,0,419,65.57ZM257.37,109.42a6.29,6.29,0,0,1,3.15-3.71l4.9-2.5a6.21,6.21,0,0,1,2.88-.7A6.35,6.35,0,0,1,274,106l6.34,12.38a6.35,6.35,0,0,1-2.11,8.16l-1.78,1-3.77,1.93a6.35,6.35,0,0,1-8.54-2.76l-6.34-12.37A6.25,6.25,0,0,1,257.37,109.42Zm-11,199.17a18.36,18.36,0,0,0-6-1.6l6-8Zm26-44.13c2.64-3.15,3.36-6.84,3.95-9.81.15-.71,2.85-15.47,2.85-15.47s2.56,1.6,2.83,1.71a.59.59,0,0,1,.33.48l3,30.28H267Zm32.38-30.22-4.62,37.39H296.3l-3.08-31.33a11.53,11.53,0,0,0-6.45-9.26l-5.51-3.49,3.67-20.34s15.46,18.37,15.82,18.83C304,230.2,305,231.87,304.74,234.24Zm-59.14,26.5a30,30,0,0,0,1.53-10.16l2-36.54,25.33-10.38-4.61,25.5a1.52,1.52,0,0,0,0,.21L266,250.46c-.5,2.18-.93,5.49-2.3,7.29l-37,49.15h-3ZM115.05,358.41a7.75,7.75,0,0,1,7.74-7.74h44.7a7.75,7.75,0,0,1,7.74,7.74V378H115.05Zm71.13,0V325.6a7.76,7.76,0,0,1,7.75-7.75h44.69a7.75,7.75,0,0,1,7.74,7.75V378H186.18V358.41ZM388.63,236.88V378H328.45V345.19a5.48,5.48,0,0,0-11,0V378H257.31V290.34a7.76,7.76,0,0,1,7.75-7.74h44.69a7.75,7.75,0,0,1,7.74,7.74v27.45a5.48,5.48,0,1,0,10.95,0V236.88a7.75,7.75,0,0,1,7.75-7.74h44.69A7.75,7.75,0,0,1,388.63,236.88Zm-52.44-18.7a18.71,18.71,0,0,0-18.69,18.7v36.46a18.36,18.36,0,0,0-6.35-1.63l4.46-36.12c.88-7-2.71-11.71-6.18-16.23-.37-.47-21.65-25.75-21.65-25.75l13.05-39.48,36-21.85v85.9ZM347.75,68.41V34.62h57.94l-12.48,11a7.89,7.89,0,0,0,0,11.83l12.48,11H347.75Z"/></svg>