<svg id="Layer_1" data-name="Layer 1" xmlns="http://www.w3.org/2000/svg" viewBox="0 0 500 500"><defs><style>.cls-1{fill:#3b9c80;}.cls-2{fill:#fff;}.cls-3{fill:#78a1d3;}.cls-4{fill:#ca6373;}.cls-5{fill:#b9d0eb;}.cls-6{fill:#e6b761;}.cls-7{fill:#969eaf;}.cls-8{fill:#bccd5e;}.cls-9{fill:#070308;}</style></defs><title>objetividad</title><rect class="cls-1" width="500" height="500"/><path class="cls-2" d="M99.29,442.31q0,29.22-20.54,29.22-10.22,0-15.4-7.45t-5.19-21.77q0-29.18,20.55-29.18,10,0,15.31,7.31T99.29,442.31Zm-13.11,0q0-11.46-1.79-15.25a6.12,6.12,0,0,0-11.33,0q-1.78,3.81-1.78,15.23,0,11.2,1.76,15.15t5.67,3.94a5.94,5.94,0,0,0,5.66-3.77Q86.19,453.85,86.18,442.31Z"/><path class="cls-2" d="M106.93,414h11.5v18.67a10.43,10.43,0,0,1,8.7-4.52q5.79,0,9.65,5.23t3.85,16.06q0,10.43-3.77,16.25a12.3,12.3,0,0,1-11,5.83q-7.12,0-9.78-6.35a28.4,28.4,0,0,0-2.2,5.48h-6.93Zm11.5,39.23q0,5.76,1.07,8a3.88,3.88,0,0,0,3.81,2.19,4.14,4.14,0,0,0,4.13-3.12q1.11-3.13,1.11-10.55c0-4.78-.35-8.27-1.07-10.48s-2-3.32-4-3.32q-5.08,0-5.08,7.67Z"/><path class="cls-2" d="M147.85,428.74h11.71v40.55a49.23,49.23,0,0,1-.71,9.71,8.23,8.23,0,0,1-3.36,5.13,11.46,11.46,0,0,1-6.76,1.88,40.35,40.35,0,0,1-6.27-.58v-9.58A11.37,11.37,0,0,0,144,476c1.72,0,2.79-.43,3.22-1.29s.64-2.76.64-5.72Zm11.79-3.45H147.77V413.71h11.87Z"/><path class="cls-2" d="M200,451.65H178V454c0,3.76.51,6.26,1.53,7.53a4.88,4.88,0,0,0,4,1.9q5.33,0,6-7.13l10.41.66q-2.78,14.61-16.62,14.61-8.54,0-13-5.77T166,450.32q0-10.92,4.7-16.66a15.5,15.5,0,0,1,12.63-5.75A15.72,15.72,0,0,1,195.2,433Q200,438.08,200,451.65Zm-11-6.77c0-.49,0-.88,0-1.16q0-8.09-5.45-8.09t-5.42,9.25Z"/><path class="cls-2" d="M208.57,415.87,220,415.5v13.24h7.72V438H220v15.4a51.27,51.27,0,0,0,.18,5.54,3.27,3.27,0,0,0,1.25,2.12,5.71,5.71,0,0,0,3.55.85c.88,0,2,0,3.32-.08v8.88a33,33,0,0,1-7.14.87c-3.54,0-6.26-.68-8.14-2a9,9,0,0,1-3.61-5.11,43.48,43.48,0,0,1-.79-9.75V438h-4.64v-9.21h4.64Z"/><path class="cls-2" d="M244.64,425.29H232.77V413.71h11.87Zm-11.79,3.45h11.71v41.92H232.85Z"/><path class="cls-2" d="M247.92,428.74h11.25l5.77,24.71,5.83-24.71h9.73L269,470.66h-9.25Z"/><path class="cls-2" d="M295.32,425.29H283.45V413.71h11.87Zm-11.79,3.45h11.7v41.92h-11.7Z"/><path class="cls-2" d="M324.33,414h11.5v56.65H325v-6.93q-2.65,7.51-9.53,7.51a10.8,10.8,0,0,1-10.06-5.89Q302,459.46,302,449.87q0-10.92,3.8-16.32A11.83,11.83,0,0,1,316,428.16q5.85,0,8.34,4.48Zm0,32.27c0-4.12-.44-6.87-1.31-8.27a4.25,4.25,0,0,0-3.82-2.09,4,4,0,0,0-4,2.9q-1.06,2.9-1.06,12,0,6.8,1.17,9.53a4,4,0,0,0,3.83,2.73,4.59,4.59,0,0,0,3.73-1.84q1.48-1.85,1.48-7.56Z"/><path class="cls-2" d="M355.58,442.06,344.5,441a13.62,13.62,0,0,1,5.37-9.71,18.89,18.89,0,0,1,11.56-3.4q5.9,0,9.47,2.26a9.91,9.91,0,0,1,4.5,5.25,33.67,33.67,0,0,1,.93,9.25v16.73q0,7.8.71,9.3H366.17a23.18,23.18,0,0,1-.59-6.44q-3.85,7.32-11.47,7.31a11.07,11.07,0,0,1-8-2.93q-3.06-2.93-3.06-8.53,0-7,4.64-10.85t16.9-4.59v-1.57c0-2.8-.28-4.73-.85-5.81a3.35,3.35,0,0,0-3.28-1.62Q356,435.63,355.58,442.06Zm9.05,8.59q-5.1.59-7.29,2.26t-2.17,5.65q0,5.29,3.9,5.29,2.12,0,3.84-2.38c1.14-1.58,1.72-4.5,1.72-8.75Z"/><path class="cls-2" d="M405.43,414h11.49v56.65H406.05v-6.93q-2.66,7.51-9.53,7.51a10.83,10.83,0,0,1-10.07-5.89q-3.31-5.89-3.31-15.48,0-10.92,3.8-16.32a11.82,11.82,0,0,1,10.14-5.39q5.87,0,8.35,4.48Zm0,32.27c0-4.12-.44-6.87-1.32-8.27a4.23,4.23,0,0,0-3.81-2.09,4,4,0,0,0-4,2.9q-1.06,2.9-1.06,12,0,6.8,1.16,9.53a4,4,0,0,0,3.84,2.73,4.59,4.59,0,0,0,3.73-1.84c1-1.23,1.48-3.75,1.48-7.56Z"/><path class="cls-3" d="M125.88,57H333.25a14.81,14.81,0,0,1,14.81,14.81v274a14.82,14.82,0,0,1-14.81,14.82H125.88a14.82,14.82,0,0,1-14.81-14.82v-274A14.81,14.81,0,0,1,125.88,57Z"/><path class="cls-2" d="M277.91,81.65h45.47V335.93H135.76V81.65h45.46"/><path class="cls-4" d="M196.29,101.4h66.55A13.11,13.11,0,0,0,276,88.29V57H183.18V88.29A13.11,13.11,0,0,0,196.29,101.4Z"/><path class="cls-5" d="M196.29,101.4h66.55A13.11,13.11,0,0,0,276,88.29V57H183.18V88.29A13.11,13.11,0,0,0,196.29,101.4Z"/><path class="cls-6" d="M314.54,211.6l72.32-72.31a16.32,16.32,0,0,1,23.08,23.09l-72.31,72.31L296,253.21Z"/><path class="cls-7" d="M337.63,234.69,314.54,211.6,296,253.21Z"/><path class="cls-4" d="M402,170.31l7.94-7.93a16.32,16.32,0,0,0-23.08-23.09l-7.94,7.94Z"/><path class="cls-8" d="M165.38,131h39.5v39.5h-39.5Z"/><path class="cls-8" d="M165.38,198.92h39.5v39.5h-39.5Z"/><path class="cls-4" d="M165.38,266.81h39.5V306.3h-39.5Z"/><path class="cls-9" d="M229.57,329.76a6.18,6.18,0,1,0,4.36,1.81A6.22,6.22,0,0,0,229.57,329.76Z"/><path class="cls-9" d="M414.3,134.93a22.52,22.52,0,0,0-31.81,0l-28.25,28.25V71.78a21,21,0,0,0-21-21H125.88a21,21,0,0,0-21,21v274a21,21,0,0,0,21,21H333.25a21,21,0,0,0,21-21v-119l60.06-60.07A22.52,22.52,0,0,0,414.3,134.93ZM341.89,71.78V175.53l-12.34,12.34V81.65a6.17,6.17,0,0,0-6.17-6.17H282.13V63.14h51.12A8.64,8.64,0,0,1,341.89,71.78ZM308.19,241l8.34-18.72,10.38,10.38Zm-38.4-177.9V88.29a7,7,0,0,1-7,6.94H196.29a6.94,6.94,0,0,1-6.94-6.94V63.14Zm63.46,291.3H125.88a8.65,8.65,0,0,1-8.64-8.64v-274a8.65,8.65,0,0,1,8.64-8.64H177V75.48H135.76a6.18,6.18,0,0,0-6.18,6.17V335.93a6.18,6.18,0,0,0,6.18,6.17h69.12a6.17,6.17,0,1,0,0-12.34H141.93V87.82H177v.47a19.31,19.31,0,0,0,19.29,19.28h66.55a19.31,19.31,0,0,0,19.29-19.28v-.47h35.08V200.21l-7,7a6.33,6.33,0,0,0-1.28,1.85L290.38,250.7a6.17,6.17,0,0,0,8.15,8.15l18.68-8.31v79.22h-63a6.17,6.17,0,1,0,0,12.34h69.13a6.17,6.17,0,0,0,6.17-6.17V245l10.59-4.71a6,6,0,0,0,1.75-1.19V345.8A8.64,8.64,0,0,1,333.25,354.44ZM382.57,181l-44.94,45L323.27,211.6,378.92,156l14.36,14.35Zm23-23L402,161.58l-14.35-14.35,3.57-3.57A10.15,10.15,0,0,1,405.58,158Z"/><path class="cls-9" d="M204.88,124.86h-39.5a6.17,6.17,0,0,0-6.17,6.17v39.5a6.17,6.17,0,0,0,6.17,6.17h39.5a6.17,6.17,0,0,0,6.17-6.17V131A6.17,6.17,0,0,0,204.88,124.86Zm-6.17,39.49H171.55V137.2h27.16Z"/><path class="cls-9" d="M204.88,192.74h-39.5a6.18,6.18,0,0,0-6.17,6.18v39.5a6.17,6.17,0,0,0,6.17,6.17h39.5a6.17,6.17,0,0,0,6.17-6.17v-39.5A6.18,6.18,0,0,0,204.88,192.74Zm-6.17,39.5H171.55V205.09h27.16Z"/><path class="cls-9" d="M204.88,260.63h-39.5a6.18,6.18,0,0,0-6.17,6.18V306.3a6.18,6.18,0,0,0,6.17,6.18h39.5a6.18,6.18,0,0,0,6.17-6.18V266.81A6.18,6.18,0,0,0,204.88,260.63Zm-6.17,39.5H171.55V273h27.16Z"/><path class="cls-9" d="M249.06,169.07a6.16,6.16,0,0,0,8.72,0l27.87-27.86a6.17,6.17,0,0,0-8.73-8.73L253.42,156l-9.37-9.37a6.17,6.17,0,0,0-8.73,8.73Z"/><path class="cls-9" d="M249.06,237a6.16,6.16,0,0,0,8.72,0l27.87-27.86a6.17,6.17,0,0,0-8.73-8.73l-23.5,23.5-9.37-9.37a6.17,6.17,0,0,0-8.73,8.73Z"/><path class="cls-9" d="M260.49,295.28l9.56,9.57a6.17,6.17,0,0,0,8.73-8.73l-9.56-9.57,9.56-9.56a6.17,6.17,0,0,0-8.73-8.73l-9.56,9.57-9.57-9.57a6.17,6.17,0,0,0-8.73,8.73l9.57,9.56-9.57,9.57a6.17,6.17,0,1,0,8.73,8.73Z"/></svg>