<svg id="Layer_1" data-name="Layer 1" xmlns="http://www.w3.org/2000/svg" viewBox="0 0 500 500"><defs><style>.cls-1{fill:#3b9c80;}.cls-2{fill:#fff;}.cls-3{fill:#e3e5e7;}.cls-4{fill:#ccced0;}.cls-5{fill:#c95f76;}.cls-6{fill:#f5e3c9;}.cls-7{fill:#d0798d;}.cls-8{fill:#449e77;}.cls-9{fill:#58a586;}.cls-10{fill:#070308;}</style></defs><title>operacionaliza</title><rect class="cls-1" x="1.58" width="500" height="500"/><path class="cls-2" d="M52,444.31q0,29.22-20.55,29.22-10.2,0-15.39-7.45t-5.19-21.77q0-29.18,20.54-29.18,10.05,0,15.32,7.31T52,444.31Zm-13.12,0q0-11.46-1.78-15.25a6.12,6.12,0,0,0-11.33,0Q24,432.89,24,444.31q0,11.2,1.77,15.15t5.66,3.94a6,6,0,0,0,5.67-3.77Q38.9,455.85,38.9,444.31Z"/><path class="cls-2" d="M59.66,430.74H70.45V437q3.43-6.81,9.53-6.81,5.74,0,9.57,5.12T93.36,451q0,11-3.73,16.65a11.9,11.9,0,0,1-10.48,5.6,10,10,0,0,1-8-3.7v17.31H59.66Zm11.49,24.75c0,4,.33,6.61,1,7.81s2,1.8,3.95,1.8A4.2,4.2,0,0,0,80,462.7q1.27-2.4,1.28-11.64,0-7.71-1.12-10.45a3.85,3.85,0,0,0-3.76-2.73,4.79,4.79,0,0,0-3.72,1.72q-1.53,1.71-1.53,8Z"/><path class="cls-2" d="M132.45,453.65H110.5V456c0,3.76.51,6.26,1.53,7.53a4.88,4.88,0,0,0,4,1.9c3.56,0,5.55-2.37,6-7.13l10.41.66q-2.77,14.61-16.62,14.61-8.53,0-13-5.77t-4.44-15.44q0-10.92,4.7-16.66a15.47,15.47,0,0,1,12.63-5.75A15.72,15.72,0,0,1,127.67,435Q132.46,440.08,132.45,453.65Zm-11-6.77c0-.49,0-.88,0-1.16q0-8.09-5.45-8.09t-5.42,9.25Z"/><path class="cls-2" d="M139.3,430.74h10.3v10.13q2.78-10.67,9.92-10.67a11,11,0,0,1,2,.21v11.41a17,17,0,0,0-1.95-.17q-8.55,0-8.55,13v18.06H139.3Z"/><path class="cls-2" d="M177,444.06,165.91,443a13.58,13.58,0,0,1,5.37-9.71,18.87,18.87,0,0,1,11.56-3.4q5.9,0,9.46,2.26a10,10,0,0,1,4.51,5.25,33.67,33.67,0,0,1,.93,9.25v16.73c0,5.2.23,8.3.71,9.3H187.57a23.3,23.3,0,0,1-.58-6.44q-3.86,7.32-11.48,7.31a11,11,0,0,1-7.95-2.93c-2-2-3.07-4.79-3.07-8.53q0-7,4.64-10.85T186,446.63v-1.57c0-2.8-.29-4.73-.85-5.81a3.36,3.36,0,0,0-3.29-1.62Q177.45,437.63,177,444.06Zm9,8.59q-5.11.59-7.29,2.26t-2.18,5.65q0,5.29,3.9,5.29,2.11,0,3.84-2.38t1.73-8.75Z"/><path class="cls-2" d="M237.62,446.18l-10.87.41a15.84,15.84,0,0,0-1.24-5.83,3.49,3.49,0,0,0-3.37-2q-5.89,0-5.89,12.37c0,4.79.48,8.13,1.43,10a4.57,4.57,0,0,0,4.26,2.87q4.4,0,4.81-7.76l10.87.7q-1.44,16.51-16.41,16.52-8.09,0-12.37-5.46t-4.29-16.25q0-10.71,4.49-16.31t12.63-5.6Q236.34,429.91,237.62,446.18Z"/><path class="cls-2" d="M255.72,427.29H243.85V415.71h11.87Zm-11.79,3.45h11.71v41.92H243.93Z"/><path class="cls-2" d="M296.48,451.7q0,21.82-17,21.83t-17-21.83q0-21.79,17-21.79T296.48,451.7Zm-12.08,0q0-8-1.1-10.85a3.89,3.89,0,0,0-3.82-2.83,3.93,3.93,0,0,0-3.8,2.69q-1.15,2.67-1.16,11,0,7.69,1,10.68a4.08,4.08,0,0,0,7.86,0C284.05,460.44,284.4,456.87,284.4,451.72Z"/><path class="cls-2" d="M303.33,430.74h11.08v5.73q2.89-6.56,10.5-6.56a11.66,11.66,0,0,1,6.78,1.85,8.11,8.11,0,0,1,3.43,4.71,37.16,37.16,0,0,1,.75,8.71v27.48H324.16V445.18q0-4.23-1.08-5.23a4.13,4.13,0,0,0-2.9-1q-3.17,0-4.15,1.93t-1,7.2v24.57h-11.7Z"/><path class="cls-2" d="M355.08,444.06,344,443a13.62,13.62,0,0,1,5.37-9.71,18.89,18.89,0,0,1,11.56-3.4q5.9,0,9.47,2.26a9.91,9.91,0,0,1,4.5,5.25,33.67,33.67,0,0,1,.93,9.25v16.73q0,7.8.71,9.3H365.67a23.18,23.18,0,0,1-.59-6.44q-3.85,7.32-11.47,7.31a11.07,11.07,0,0,1-8-2.93q-3.06-2.93-3.06-8.53,0-7,4.64-10.85t16.9-4.59v-1.57c0-2.8-.28-4.73-.85-5.81a3.35,3.35,0,0,0-3.28-1.62Q355.53,437.63,355.08,444.06Zm9.05,8.59q-5.1.59-7.29,2.26t-2.17,5.65q0,5.29,3.9,5.29,2.12,0,3.84-2.38c1.14-1.58,1.72-4.5,1.72-8.75Z"/><path class="cls-2" d="M384.38,416h11.71v56.65H384.38Z"/><path class="cls-2" d="M416.42,427.29H404.55V415.71h11.87Zm-11.78,3.45h11.7v41.92h-11.7Z"/><path class="cls-2" d="M423.77,430.74h26.15v7.51l-15.55,26.11h16v8.3h-28v-8.3L437.49,439H423.77Z"/><path class="cls-2" d="M466.56,444.06,455.48,443a13.62,13.62,0,0,1,5.37-9.71,18.87,18.87,0,0,1,11.56-3.4c3.93,0,7.08.75,9.47,2.26a10,10,0,0,1,4.5,5.25,33.67,33.67,0,0,1,.93,9.25v16.73q0,7.8.71,9.3H477.15a23.18,23.18,0,0,1-.59-6.44q-3.85,7.32-11.47,7.31a11.07,11.07,0,0,1-8-2.93q-3.06-2.93-3.06-8.53,0-7,4.64-10.85t16.9-4.59v-1.57c0-2.8-.28-4.73-.85-5.81a3.35,3.35,0,0,0-3.28-1.62Q467,437.63,466.56,444.06Zm9.05,8.59c-3.41.39-5.83,1.14-7.29,2.26s-2.17,3-2.17,5.65q0,5.29,3.9,5.29,2.11,0,3.84-2.38c1.14-1.58,1.72-4.5,1.72-8.75Z"/><path class="cls-3" d="M383.86,170.62H342.2a12.44,12.44,0,0,1,0-24.88h41.66a26.91,26.91,0,0,0,0-53.81H342.2a12.44,12.44,0,1,1,0-24.88h41.66a51.79,51.79,0,0,1,0,103.57Z"/><path class="cls-4" d="M390.05,146.75c.18-.62.34-1.24.51-1.85a26.91,26.91,0,0,1-6.7.84H342.2a12.44,12.44,0,0,0,0,24.88h38.51A141.7,141.7,0,0,0,390.05,146.75Z"/><path class="cls-4" d="M342.2,67.05a12.44,12.44,0,1,0,0,24.88h41.66A26.7,26.7,0,0,1,398,96c.45-8,.65-15.91.74-23.67,0-1,0-2-.08-3.07a51.59,51.59,0,0,0-14.78-2.16Z"/><path class="cls-3" d="M357.13,50.7H185A21.09,21.09,0,0,0,163.86,72c.61,49.14,5.49,93.3,44.52,124.41l62.67,14.86,62.67-14.86c39-31.11,43.91-75.27,44.52-124.41A21.1,21.1,0,0,0,357.13,50.7Z"/><path class="cls-4" d="M235.69,196.43c-39-31.11-43.91-75.27-44.52-124.41A21.1,21.1,0,0,1,212.28,50.7H185A21.08,21.08,0,0,0,163.86,72c.61,49.14,5.48,93.3,44.52,124.41l62.67,14.86,13.66-3.24Z"/><path class="cls-5" d="M140.84,196.43a44.61,44.61,0,1,0,0,89.21l39.21,20.92,17.66-20.92V196.43Z"/><path class="cls-6" d="M397.61,257.21a16.18,16.18,0,0,1,0-32.35V211.29H164.5v59.49H397.61V257.21Z"/><path class="cls-7" d="M397.61,257.21H197.72a16.18,16.18,0,1,1,0-32.35H397.61a14.22,14.22,0,1,0,0-28.43H197.72a44.61,44.61,0,1,0,0,89.21l41.34,14.87h104.5l23.66-14.87h30.39a14.22,14.22,0,1,0,0-28.43Z"/><path class="cls-8" d="M310.35,285.64h56.87a44.61,44.61,0,0,1,0,89.22H310.35Z"/><path class="cls-6" d="M110.45,346.42a16.17,16.17,0,0,0,0-32.34V300.51H343.56V360H110.45Z"/><path class="cls-9" d="M110.45,374.86h199.9a44.61,44.61,0,0,0,0-89.22H110.45a14.22,14.22,0,0,0,0,28.44h199.9a16.17,16.17,0,0,1,0,32.34H110.45a14.22,14.22,0,0,0,0,28.44Z"/><path class="cls-10" d="M228.63,129.67a5.12,5.12,0,0,0,5.12-5.12v-7.68a5.12,5.12,0,0,0-10.24,0v7.68A5.12,5.12,0,0,0,228.63,129.67Z"/><path class="cls-10" d="M313.46,129.67a5.13,5.13,0,0,0,5.13-5.12v-7.68a5.13,5.13,0,0,0-10.25,0v7.68A5.12,5.12,0,0,0,313.46,129.67Z"/><path class="cls-10" d="M271.05,135.34a22.14,22.14,0,0,0,16.72-7.44,5.12,5.12,0,1,0-7.72-6.74,12.26,12.26,0,0,1-18,0,5.12,5.12,0,1,0-7.71,6.74A22.13,22.13,0,0,0,271.05,135.34Z"/><path class="cls-10" d="M110.45,341.3a19.34,19.34,0,1,0,0,38.68H367.22a49.7,49.7,0,0,0,30.18-89.21h.21a19.34,19.34,0,0,0,0-38.68,11.05,11.05,0,0,1,0-22.1,19.34,19.34,0,0,0,0-38.68H347.08a108.23,108.23,0,0,0,12.77-15.56h24a56.91,56.91,0,0,0,0-113.82h-2.41a26.25,26.25,0,0,0-24.32-16.35H185a26.21,26.21,0,0,0-26.23,26.51c.52,42.57,4,86.54,36.28,119.22H140.84a49.7,49.7,0,0,0-30.18,89.21h-.21a19.34,19.34,0,1,0,0,38.68,11.05,11.05,0,0,1,0,22.1Zm296.26-11.05a39.54,39.54,0,0,1-39.49,39.49H340.55c1.1-.85,2.16-1.75,3.2-2.68l0,0a49.66,49.66,0,0,0-1.92-75.23c-.43-.36-.87-.7-1.31-1h26.67A39.53,39.53,0,0,1,406.71,330.25Zm0-119.6a9.11,9.11,0,0,1-9.1,9.09H350.83a5.13,5.13,0,0,0,0,10.25h28.58a21.28,21.28,0,0,0,0,22.09H197.72a11,11,0,1,1,0-22.09H330.34a5.13,5.13,0,1,0,0-10.25H197.71A21.68,21.68,0,0,0,176.42,241a21.32,21.32,0,0,0,21.29,21.3h199.9a9.1,9.1,0,1,1,0,18.19H197.71c-21.49,0-39.48-18-39.48-39.49a39.52,39.52,0,0,1,39.48-39.48h199.9A9.11,9.11,0,0,1,406.71,210.65ZM382.53,97.05h1.33a21.79,21.79,0,0,1,0,43.57h-8.08C379.72,126.58,381.6,111.88,382.53,97.05Zm48,21.79a46.71,46.71,0,0,1-46.66,46.66h-17.8a117.84,117.84,0,0,0,6.47-14.64h11.33a32,32,0,1,0,0-64.05H383c.17-4.58.27-9.16.33-13.73,0-.3,0-.6,0-.91h.5A46.72,46.72,0,0,1,430.52,118.84ZM169,72a16,16,0,0,1,16-16.14H357.13A16.18,16.18,0,0,1,373,70s0,0,0,.07c.74,7-.11,14.54-.48,21.58v.06c-.8,16.28-2.64,32.66-7.08,47.81-6.26,21.37-17.25,38.32-33.57,51.76H210.19c-16.31-13.44-27.3-30.39-33.57-51.76S169.26,94.47,169,72ZM101.36,241a39.52,39.52,0,0,1,39.48-39.48h26.68c-.45.34-.88.69-1.31,1l-.28.23a50.28,50.28,0,0,0-17.7,43.1c0,.14,0,.29,0,.43C149.73,260,157,272,167.53,280.54c-8.9,0-17.8,0-26.69,0A39.53,39.53,0,0,1,101.36,241Zm77.38,110.51H310.35a21.29,21.29,0,0,0,0-42.58H110.45a9.1,9.1,0,0,1,0-18.2h199.9a39.49,39.49,0,1,1,0,79H110.45a9.1,9.1,0,0,1,0-18.2h47.8a5.12,5.12,0,0,0,0-10.24h-29.6a21.24,21.24,0,0,0,0-22.1h181.7a11,11,0,0,1,0,22.1H178.74a5.12,5.12,0,1,0,0,10.24Z"/></svg>