<svg id="Layer_1" data-name="Layer 1" xmlns="http://www.w3.org/2000/svg" viewBox="0 0 500 500"><defs><style>.cls-1{fill:#3b9c80;}.cls-2{fill:#fff;}.cls-3{fill:#d88d47;}.cls-4{fill:#d37e32;}.cls-5{fill:#3970b1;}.cls-6{fill:#c47134;}.cls-7{fill:#b46530;}.cls-8{fill:#3964a8;}.cls-9{fill:#dd9e62;}.cls-10{fill:#d99358;}.cls-11{fill:#070308;}</style></defs><title>recompensa</title><rect class="cls-1" x="1.58" width="500" height="500"/><path class="cls-2" d="M46.56,416H64.37a51.18,51.18,0,0,1,7.95.47,13.21,13.21,0,0,1,5.58,2.58,13.93,13.93,0,0,1,4.42,5.72,20.17,20.17,0,0,1,1.59,8.16q0,10.62-8,14.94l10.41,24.78H72.81l-7.58-22.41H59v22.41H46.56ZM59,425.18v15.89h5.48q7.31,0,7.31-8.17a8.91,8.91,0,0,0-1.08-4.63,5.86,5.86,0,0,0-2.51-2.45,10.72,10.72,0,0,0-4.22-.64Z"/><path class="cls-2" d="M123.51,453.65h-22V456c0,3.76.51,6.26,1.53,7.53a4.9,4.9,0,0,0,4,1.9q5.33,0,6-7.13l10.42.66q-2.78,14.61-16.62,14.61-8.55,0-13-5.77t-4.43-15.44q0-10.92,4.7-16.66a15.49,15.49,0,0,1,12.62-5.75A15.69,15.69,0,0,1,118.72,435Q123.51,440.08,123.51,453.65Zm-11-6.77c0-.49,0-.88,0-1.16q0-8.09-5.46-8.09t-5.41,9.25Z"/><path class="cls-2" d="M161.65,446.18l-10.87.41a15.62,15.62,0,0,0-1.25-5.83,3.47,3.47,0,0,0-3.36-2q-5.89,0-5.89,12.37c0,4.79.47,8.13,1.43,10a4.56,4.56,0,0,0,4.25,2.87q4.41,0,4.82-7.76l10.87.7q-1.46,16.51-16.41,16.52-8.09,0-12.38-5.46t-4.29-16.25q0-10.71,4.5-16.31t12.62-5.6Q160.38,429.91,161.65,446.18Z"/><path class="cls-2" d="M200.25,451.7q0,21.82-17,21.83t-17-21.83q0-21.79,17-21.79T200.25,451.7Zm-12.08,0q0-8-1.09-10.85a4,4,0,0,0-7.63-.14q-1.15,2.67-1.16,11,0,7.69,1,10.68a4.07,4.07,0,0,0,7.85,0Q188.18,459.45,188.17,451.72Z"/><path class="cls-2" d="M207.1,430.74h11.08v5.73a10.38,10.38,0,0,1,10.17-6.56q7.47,0,9.05,6.56,2.82-6.56,10.19-6.56a12.47,12.47,0,0,1,6.54,1.49,7.91,7.91,0,0,1,3.4,4.09q.95,2.6,1,9.78v27.39h-11.7V446.47q0-4.7-.67-6.1T243.17,439c-1.83,0-3,.61-3.57,1.84s-.83,3.72-.83,7.45v24.41H227.06V446.1q0-4.49-.64-5.81C226,439.4,225,439,223.49,439c-1.88,0-3.13.64-3.75,1.93s-.94,3.74-.94,7.36v24.41H207.1Z"/><path class="cls-2" d="M266.78,430.74h10.79V437q3.44-6.81,9.53-6.81,5.76,0,9.57,5.13T300.48,451q0,11-3.73,16.65a11.89,11.89,0,0,1-10.48,5.6,10,10,0,0,1-8-3.7v17.31h-11.5Zm11.5,24.75q0,6,1,7.81c.65,1.2,2,1.8,3.95,1.8a4.17,4.17,0,0,0,3.92-2.4q1.29-2.4,1.28-11.64,0-7.71-1.11-10.45a3.87,3.87,0,0,0-3.76-2.73,4.79,4.79,0,0,0-3.72,1.72q-1.53,1.71-1.53,8Z"/><path class="cls-2" d="M339.58,453.65h-22V456c0,3.76.51,6.26,1.53,7.53a4.9,4.9,0,0,0,4,1.9q5.34,0,6-7.13l10.42.66q-2.77,14.61-16.62,14.61-8.55,0-13-5.77t-4.43-15.44q0-10.92,4.7-16.66a15.48,15.48,0,0,1,12.62-5.75A15.69,15.69,0,0,1,334.79,435Q339.58,440.08,339.58,453.65Zm-11-6.77c0-.49,0-.88,0-1.16q0-8.09-5.46-8.09t-5.41,9.25Z"/><path class="cls-2" d="M346.43,430.74h11.08v5.73q2.91-6.56,10.5-6.56a11.72,11.72,0,0,1,6.79,1.85,8.13,8.13,0,0,1,3.42,4.71,37.16,37.16,0,0,1,.75,8.71v27.48H367.26V445.18q0-4.23-1.08-5.23a4.13,4.13,0,0,0-2.9-1q-3.16,0-4.15,1.93t-1,7.2v24.57h-11.7Z"/><path class="cls-2" d="M414.62,440.82l-8.34,2.49q-1.66-5.69-6.15-5.68-3.64,0-3.65,3.65a3.79,3.79,0,0,0,1.37,3.16,22.2,22.2,0,0,0,5.64,2.57,45.23,45.23,0,0,1,7.06,3,10.6,10.6,0,0,1,3.78,3.88,11.48,11.48,0,0,1,1.53,5.95,12.84,12.84,0,0,1-4.19,9.76c-2.79,2.63-6.7,3.94-11.7,3.94q-14.16,0-15.69-12.49l9.3-1.5q1.16,6.27,6.59,6.27,4.65,0,4.65-3.9a3.77,3.77,0,0,0-1.37-3.16,18.61,18.61,0,0,0-5.31-2.32q-7.22-2.32-9.92-5.6a11.61,11.61,0,0,1-2.7-7.6,12.16,12.16,0,0,1,4.26-9.71,15.77,15.77,0,0,1,10.64-3.65Q411.6,429.87,414.62,440.82Z"/><path class="cls-2" d="M432.92,444.06,421.84,443a13.65,13.65,0,0,1,5.37-9.71,18.89,18.89,0,0,1,11.56-3.4q5.89,0,9.47,2.26a9.91,9.91,0,0,1,4.5,5.25,33.67,33.67,0,0,1,.93,9.25v16.73q0,7.8.71,9.3H443.51a23.18,23.18,0,0,1-.59-6.44q-3.84,7.32-11.47,7.31a11.07,11.07,0,0,1-8-2.93q-3.06-2.93-3.06-8.53,0-7,4.64-10.85t16.9-4.59v-1.57c0-2.8-.28-4.73-.85-5.81a3.35,3.35,0,0,0-3.28-1.62Q433.37,437.63,432.92,444.06Zm9.05,8.59q-5.1.59-7.28,2.26c-1.46,1.12-2.18,3-2.18,5.65q0,5.29,3.9,5.29,2.11,0,3.84-2.38t1.72-8.75Z"/><circle class="cls-3" cx="253.57" cy="167.97" r="111.57"/><path class="cls-4" d="M253.59,268.3a111.59,111.59,0,0,1-111.44-106c-.09,1.86-.14,3.73-.14,5.62a111.59,111.59,0,1,0,223.17,0c0-1.89-.05-3.76-.14-5.62a111.59,111.59,0,0,1-111.45,106Z"/><path class="cls-5" d="M253.59,279.55l30.21,86.78,28.38-27.75,39.47,4.13-30-86.29A111.12,111.12,0,0,1,253.59,279.55Z"/><path class="cls-5" d="M253.59,279.55a111.11,111.11,0,0,1-68-23.13l-30,86.29L195,338.58l28.38,27.75Z"/><circle class="cls-6" cx="253.57" cy="167.97" r="87.89" transform="translate(-44.5 228.49) rotate(-45)"/><path class="cls-7" d="M253.59,244.62a87.91,87.91,0,0,1-87.72-82.28c-.12,1.86-.18,3.73-.18,5.62a87.91,87.91,0,1,0,175.81,0c0-1.89-.07-3.76-.18-5.62A87.92,87.92,0,0,1,253.59,244.62Z"/><path class="cls-8" d="M326.41,270.18l-4.79-13.76a111.12,111.12,0,0,1-68,23.13l4.81,13.8A124.88,124.88,0,0,0,326.41,270.18Z"/><path class="cls-8" d="M248.79,293.35l4.8-13.8a111.11,111.11,0,0,1-68-23.13l-4.79,13.76a124.88,124.88,0,0,0,68,23.17Z"/><path class="cls-9" d="M253.71,225.58a34.37,34.37,0,0,1-34.34-34.33,11.05,11.05,0,1,1,22.1,0A12.24,12.24,0,1,0,253.71,179a11.05,11.05,0,1,1,0-22.1,12.24,12.24,0,1,0-12.24-12.23,11,11,0,0,1-22.1,0A34.34,34.34,0,1,1,278.92,168a34.32,34.32,0,0,1-25.21,57.62Z"/><path class="cls-10" d="M253.71,167.76a11,11,0,0,1-9.5-5.42,10.93,10.93,0,0,0-1.56,5.62,11.06,11.06,0,0,0,11.06,11,12.25,12.25,0,0,1,10.85,6.61,12.22,12.22,0,0,0-10.85-17.86Z"/><path class="cls-10" d="M253.71,214.33a34.39,34.39,0,0,1-33.57-27.12,11,11,0,0,0-.77,4,34.34,34.34,0,0,0,68.67,0,33.56,33.56,0,0,0-.47-5.62A34.38,34.38,0,0,1,253.71,214.33Z"/><path class="cls-11" d="M253.71,198.78a7.58,7.58,0,0,1-7.57-7.56,15.77,15.77,0,1,0-31.54,0,39.11,39.11,0,1,0,70.47-23.33,39,39,0,0,0,2-43.73,4.7,4.7,0,1,0-8,4.91,29.63,29.63,0,0,1-3.53,35.63,4.71,4.71,0,0,0,0,6.38A29.7,29.7,0,1,1,224,191.22a6.38,6.38,0,1,1,12.75,0,17,17,0,1,0,17-16.95,6.38,6.38,0,1,1,0-12.76,17,17,0,1,0-17-16.95,6.38,6.38,0,0,1-12.75,0,29.73,29.73,0,0,1,29.71-29.71,29.33,29.33,0,0,1,13.42,3.21,4.7,4.7,0,0,0,4.26-8.37,38.62,38.62,0,0,0-17.68-4.24,39.15,39.15,0,0,0-39.11,39.11,15.77,15.77,0,1,0,31.54,0,7.57,7.57,0,1,1,7.57,7.56,15.77,15.77,0,0,0,0,31.54,7.56,7.56,0,0,1,0,15.12Z"/><path class="cls-11" d="M346.38,167.89a92.79,92.79,0,1,0-185.57,0,4.7,4.7,0,1,0,9.39,0,83.22,83.22,0,1,1,1.89,17.71,4.7,4.7,0,0,0-9.18,2,92.79,92.79,0,0,0,183.47-19.7Z"/><path class="cls-11" d="M342.07,300.59a4.7,4.7,0,0,0-8.88,3.09L345,337.56l-32.2-3.37A4.73,4.73,0,0,0,309,335.5l-23.15,22.64-25.73-73.92A115.73,115.73,0,0,0,319.38,264L327,285.92a4.72,4.72,0,0,0,4.44,3.16,4.63,4.63,0,0,0,1.54-.27,4.7,4.7,0,0,0,2.9-6l-8.62-24.75a116.52,116.52,0,1,0-147.35,0l-29,83.38c-1.07,2.76,1.37,6.66,4.92,6.22l37.36-3.92L220,370a4.78,4.78,0,0,0,7.72-1.81L253.59,294l25.84,74.22a4.75,4.75,0,0,0,7.72,1.81L314,343.76l37.37,3.92a4.77,4.77,0,0,0,4.92-6.22Zm-195.6-132.7A107.13,107.13,0,1,1,253.59,275,107.24,107.24,0,0,1,146.47,167.89Zm74.85,190.25-23.15-22.63a4.7,4.7,0,0,0-3.77-1.32l-32.2,3.37L187.81,264a115.73,115.73,0,0,0,59.24,20.22Z"/></svg>