<svg id="Layer_1" data-name="Layer 1" xmlns="http://www.w3.org/2000/svg" viewBox="0 0 500 500"><defs><style>.cls-1{fill:#3b9c80;}.cls-2{fill:#fff;}.cls-3{fill:#d0796f;}.cls-4{fill:#cc6856;}.cls-5{fill:#646c77;}.cls-6{fill:#eccdb2;}.cls-7{fill:#cc9c6b;}.cls-8{fill:#c89a74;}.cls-9{fill:#e6e8ec;}.cls-10{fill:#efcf72;}.cls-11{fill:#60a999;}.cls-12{fill:#a9b0bb;}.cls-13{fill:#070308;}</style></defs><title>rutinas</title><rect class="cls-1" width="500" height="500"/><path class="cls-2" d="M118.84,414h17.81a50,50,0,0,1,7.95.47,13.21,13.21,0,0,1,5.58,2.58,13.93,13.93,0,0,1,4.42,5.72,20.14,20.14,0,0,1,1.6,8.16q0,10.62-8,14.94l10.41,24.78H145.09l-7.58-22.41h-6.22v22.41H118.84Zm12.45,9.17v15.89h5.48q7.3,0,7.31-8.17a8.91,8.91,0,0,0-1.08-4.63,5.86,5.86,0,0,0-2.51-2.45,10.72,10.72,0,0,0-4.22-.64Z"/><path class="cls-2" d="M163.54,428.74h11.71v26.93c0,2.71.24,4.53.74,5.44s1.58,1.37,3.24,1.37a4.86,4.86,0,0,0,3.47-1.12,5,5,0,0,0,1.43-3.1c.16-1.31.25-4,.25-8.12v-21.4h11.7v41.92h-11v-5.73q-2.49,4.27-5,5.44a13.63,13.63,0,0,1-5.83,1.16c-3,0-5.33-.62-6.93-1.87a8.34,8.34,0,0,1-3.11-4.73,40.71,40.71,0,0,1-.71-8.92Z"/><path class="cls-2" d="M206.41,415.87l11.38-.37v13.24h7.72V438h-7.72v15.4a51.27,51.27,0,0,0,.18,5.54,3.27,3.27,0,0,0,1.25,2.12,5.71,5.71,0,0,0,3.55.85c.88,0,2,0,3.32-.08v8.88a33,33,0,0,1-7.14.87q-5.31,0-8.14-2a9,9,0,0,1-3.61-5.11,43.48,43.48,0,0,1-.79-9.75V438h-4.64v-9.21h4.64Z"/><path class="cls-2" d="M242.48,425.29H230.61V413.71h11.87Zm-11.78,3.45h11.7v41.92H230.7Z"/><path class="cls-2" d="M251,428.74h11.08v5.73q2.91-6.56,10.5-6.56a11.72,11.72,0,0,1,6.79,1.85,8.13,8.13,0,0,1,3.42,4.71,37.16,37.16,0,0,1,.75,8.71v27.48h-11.7V443.18c0-2.82-.37-4.56-1.08-5.23a4.14,4.14,0,0,0-2.91-1c-2.1,0-3.49.64-4.15,1.93s-1,3.68-1,7.2v24.57H251Z"/><path class="cls-2" d="M302.75,442.06,291.66,441a13.63,13.63,0,0,1,5.38-9.71,18.87,18.87,0,0,1,11.56-3.4q5.89,0,9.46,2.26a9.91,9.91,0,0,1,4.5,5.25,33.2,33.2,0,0,1,.94,9.25v16.73q0,7.8.7,9.3H313.33a23.3,23.3,0,0,1-.58-6.44q-3.86,7.32-11.48,7.31a11,11,0,0,1-7.95-2.93q-3.07-2.93-3.07-8.53,0-7,4.64-10.85t16.9-4.59v-1.57c0-2.8-.28-4.73-.84-5.81a3.36,3.36,0,0,0-3.29-1.62Q303.21,435.63,302.75,442.06Zm9,8.59q-5.1.59-7.28,2.26t-2.18,5.65q0,5.29,3.9,5.29,2.11,0,3.84-2.38t1.72-8.75Z"/><path class="cls-2" d="M359.73,438.82l-8.34,2.49q-1.67-5.69-6.14-5.68-3.66,0-3.66,3.65a3.8,3.8,0,0,0,1.37,3.16,22.5,22.5,0,0,0,5.65,2.57,45,45,0,0,1,7.05,3,10.45,10.45,0,0,1,3.78,3.88,11.49,11.49,0,0,1,1.54,5.95,12.87,12.87,0,0,1-4.19,9.76q-4.2,3.95-11.71,3.94-14.16,0-15.69-12.49l9.3-1.5q1.15,6.27,6.6,6.27,4.65,0,4.65-3.9a3.8,3.8,0,0,0-1.37-3.16,18.55,18.55,0,0,0-5.32-2.32q-7.22-2.32-9.92-5.6a11.66,11.66,0,0,1-2.69-7.6,12.14,12.14,0,0,1,4.25-9.71,15.81,15.81,0,0,1,10.65-3.65Q356.7,427.87,359.73,438.82Z"/><path class="cls-3" d="M250,341.74v41.33H191V361.46a29.47,29.47,0,0,1,25-29.16l16.3,27.16Z"/><path class="cls-3" d="M309,361.46v21.61H250V341.74l17.71,17.72L284,332.3A29.47,29.47,0,0,1,309,361.46Z"/><path class="cls-4" d="M232.29,329.94,250,341.74l-17.71,17.72L216,332.3a.54.54,0,0,1,.3-.06Z"/><path class="cls-4" d="M284,332.3l-16.3,27.16L250,341.74l17.71-11.8,16,2.3a.54.54,0,0,1,.3.06Z"/><path class="cls-5" d="M291.33,263a33.43,33.43,0,0,1-9.8,23.62l-2,2v-8A11.83,11.83,0,0,0,270,269l-8.44-1.71A14.41,14.41,0,0,1,250,253.18a14.41,14.41,0,0,1-11.57,14.11L230,269a11.83,11.83,0,0,0-9.51,11.58v8l-2-2a33.4,33.4,0,0,1,23.62-57h15.82A33.46,33.46,0,0,1,291.33,263Z"/><path class="cls-6" d="M250,318.13a29.77,29.77,0,0,0,12.81-2.9l4.9,14.71L250,341.74l-17.71-11.8,4.9-14.71Z"/><path class="cls-6" d="M279.52,288.61A29.45,29.45,0,0,1,250,318.13l-12.81-2.9-8.09-5.72a29.69,29.69,0,0,1-8.62-20.9v-8A11.83,11.83,0,0,1,230,269l8.44-1.71A14.41,14.41,0,0,0,250,253.18a14.41,14.41,0,0,0,11.57,14.11L270,269a11.83,11.83,0,0,1,9.51,11.58Z"/><path class="cls-7" d="M131.92,206h32.23a6,6,0,0,0,5-2.66l20.43-30.7a5.88,5.88,0,0,1,1.42,3.84v70.85a5.93,5.93,0,0,1-5.91,5.9H78.78a5.92,5.92,0,0,1-5.9-5.9V176.43a5.93,5.93,0,0,1,1.41-3.84l20.43,30.7a6,6,0,0,0,5,2.66Z"/><path class="cls-8" d="M108.3,170.52h76.75a6.07,6.07,0,0,1,4.49,2.07l-20.43,30.7a6,6,0,0,1-5,2.66H99.68a6,6,0,0,1-5-2.66l-20.43-30.7a6.11,6.11,0,0,1,4.49-2.07Z"/><path class="cls-9" d="M202.77,76.06h94.46v70.85H202.77Z"/><path class="cls-10" d="M226.38,28.82v18.9L202.77,66.61V28.82Z"/><path class="cls-11" d="M309,76.06H191l11.81-9.45,23.61-18.89L250,28.82Z"/><path class="cls-12" d="M238.19,111.48h23.62v35.43H238.19Z"/><circle class="cls-10" cx="368.08" cy="205.95" r="59.04"/><path class="cls-13" d="M374,177.51V164.62H362.18v11.81H350.37v17.71a17.73,17.73,0,0,0,17.71,17.71,5.92,5.92,0,0,1,5.91,5.91v5.9h-5.91a5.9,5.9,0,0,1-5.9-5.9v-5.91H350.37v5.91a17.68,17.68,0,0,0,11.81,16.62v12.9H374V235.47h11.8V217.76A17.73,17.73,0,0,0,368.08,200a5.9,5.9,0,0,1-5.9-5.9v-5.9h5.9a5.91,5.91,0,0,1,5.91,5.9V200h11.8v-5.9A17.7,17.7,0,0,0,374,177.51Z"/><path class="cls-13" d="M368.08,141A64.95,64.95,0,1,0,433,206,65,65,0,0,0,368.08,141Zm0,118.09A53.14,53.14,0,1,1,421.22,206,53.19,53.19,0,0,1,368.08,259.09Z"/><path class="cls-13" d="M196.86,247.28V176.43a11.82,11.82,0,0,0-11.81-11.81H161.44V152.81A11.83,11.83,0,0,0,149.63,141H114.21a11.82,11.82,0,0,0-11.81,11.81v11.81H78.78A11.83,11.83,0,0,0,67,176.43v70.85a11.83,11.83,0,0,0,11.81,11.81H185.05A11.82,11.82,0,0,0,196.86,247.28Zm-70.85-59V200H99.65L83.91,176.43h96L164.18,200H137.82v-11.8Zm-11.8-35.43h35.42v11.81H114.21ZM78.78,190l11,16.57a11.78,11.78,0,0,0,9.82,5.25H126v11.81h11.81V211.85h26.36a11.78,11.78,0,0,0,9.83-5.26l11-16.57,0,57.26H78.78Z"/><path class="cls-13" d="M174.13,82h22.73v70.85H303.14V82h22.73L250,21.27,232.29,35.44V22.92H196.86V63.78Zm81.77,59H244.1V117.39h11.8Zm35.43,0H267.71V105.58H232.29V141H208.67V82h82.66Zm.88-70.85H207.79L250,36.38ZM208.67,34.73h11.81V44.88l-11.81,9.45Z"/><path class="cls-13" d="M284.53,326.37l-12.37-1.77-2.25-6.73a35.39,35.39,0,0,0,15.38-26.69l.43-.42a39.31,39.31,0,0,0-27.79-67.1H242.07a39.31,39.31,0,0,0-27.79,67.1l.43.42a35.36,35.36,0,0,0,15.38,26.69l-2.25,6.73-12.37,1.77a35.61,35.61,0,0,0-30.42,35.08V389H315V361.45a35.61,35.61,0,0,0-30.42-35.08Zm-10.14,10.48-7.85,13.09-7.27-7.28,9.84-6.56Zm-57.94-64a27.39,27.39,0,0,1,25.62-37.34h15.86A27.52,27.52,0,0,1,285.42,263a27.19,27.19,0,0,1-1.87,9.84,17.62,17.62,0,0,0-12.36-9.59l-8.45-1.69a8.53,8.53,0,0,1-6.84-8.34v-5.9H244.1v5.9a8.54,8.54,0,0,1-6.84,8.34l-8.44,1.69A17.63,17.63,0,0,0,216.45,272.81Zm9.93,7.77a5.91,5.91,0,0,1,4.75-5.79l8.46-1.69A20.28,20.28,0,0,0,250,267.48a20.13,20.13,0,0,0,10.42,5.62l8.46,1.69a5.91,5.91,0,0,1,4.73,5.79v8a23.62,23.62,0,1,1-47.24,0ZM250,324h0a35.13,35.13,0,0,0,9.11-1.23l1.57,4.72L250,334.65l-10.69-7.13,1.58-4.72A35,35,0,0,0,250,324Zm-19.1,12.07,9.84,6.56-7.27,7.28-7.85-13.09Zm-34,25.35A23.74,23.74,0,0,1,213.14,339l18,30,13-13v21.17H196.86Zm106.28,15.72H255.9V356l13,13,18-30a23.74,23.74,0,0,1,16.28,22.43Z"/><path class="cls-13" d="M122.14,267.94l-10.21,5.91a160.06,160.06,0,0,0,58.36,58.37L176.21,322A148.5,148.5,0,0,1,122.14,267.94Z"/><path class="cls-13" d="M323.8,322l5.91,10.21a161.18,161.18,0,0,0,50.51-46.11l-9.64-6.81A149.41,149.41,0,0,1,323.8,322Z"/><path class="cls-13" d="M383.78,131.7l10.71-5a160,160,0,0,0-77-77l-5,10.71A148.09,148.09,0,0,1,383.78,131.7Z"/><path class="cls-13" d="M187.56,60.36l-5-10.71a160,160,0,0,0-77,77l10.71,5A148.09,148.09,0,0,1,187.56,60.36Z"/></svg>