<svg id="Layer_1" data-name="Layer 1" xmlns="http://www.w3.org/2000/svg" viewBox="0 0 500 500"><defs><style>.cls-1{fill:#3b9c80;}.cls-2{fill:#fff;}.cls-3{fill:#c75043;}.cls-3,.cls-4,.cls-5,.cls-7{stroke:#040006;stroke-miterlimit:10;stroke-width:8px;}.cls-4{fill:#f1ebc7;}.cls-5{fill:#f4e5ae;}.cls-6{fill:#b53c2e;}.cls-7{fill:#ce7374;}.cls-8{fill:#e5bd29;}.cls-9{fill:#c65264;}</style></defs><title>sinceridad</title><rect class="cls-1" x="1.58" width="500" height="500"/><path class="cls-2" d="M115.11,428.33l-10.3,3.95q-2.19-7-8-7a6,6,0,0,0-4.34,1.56,4.92,4.92,0,0,0-1.59,3.63,4.58,4.58,0,0,0,1.88,3.84,37.56,37.56,0,0,0,7.91,3.75,47,47,0,0,1,8.61,4,15,15,0,0,1,5.07,5.42,16,16,0,0,1,1.93,7.94,17,17,0,0,1-5.46,13q-5.46,5.07-14.63,5.08-15.4,0-19.68-15.56l10.88-3.12q2,8.55,9.09,8.55a7.91,7.91,0,0,0,5.25-1.68,5.47,5.47,0,0,0,2-4.42,5.53,5.53,0,0,0-1.41-3.71c-.94-1.1-3.1-2.25-6.47-3.47a59.4,59.4,0,0,1-9.72-4.21,15,15,0,0,1-5.27-5.4,15.4,15.4,0,0,1-2.07-8A16.85,16.85,0,0,1,83.67,420q4.92-4.87,13-4.88Q111.46,415.13,115.11,428.33Z"/><path class="cls-2" d="M134.61,427.29H122.74V415.71h11.87Zm-11.78,3.45h11.7v41.92h-11.7Z"/><path class="cls-2" d="M143.12,430.74H154.2v5.73q2.91-6.56,10.5-6.56a11.72,11.72,0,0,1,6.79,1.85,8.13,8.13,0,0,1,3.42,4.71,37.16,37.16,0,0,1,.75,8.71v27.48H164V445.18q0-4.23-1.08-5.23a4.14,4.14,0,0,0-2.91-1q-3.15,0-4.15,1.93t-1,7.2v24.57H143.12Z"/><path class="cls-2" d="M215,446.18l-10.87.41a15.62,15.62,0,0,0-1.25-5.83,3.47,3.47,0,0,0-3.36-2q-5.89,0-5.89,12.37c0,4.79.48,8.13,1.43,10a4.57,4.57,0,0,0,4.26,2.87q4.4,0,4.81-7.76L215,457q-1.44,16.51-16.41,16.52-8.09,0-12.38-5.46t-4.29-16.25q0-10.71,4.5-16.31t12.62-5.6Q213.69,429.91,215,446.18Z"/><path class="cls-2" d="M253.56,453.65H231.61V456c0,3.76.51,6.26,1.53,7.53a4.88,4.88,0,0,0,4,1.9q5.32,0,6-7.13l10.41.66q-2.77,14.61-16.62,14.61-8.53,0-13-5.77t-4.43-15.44q0-10.92,4.7-16.66a15.5,15.5,0,0,1,12.63-5.75A15.72,15.72,0,0,1,248.78,435Q253.57,440.08,253.56,453.65Zm-11-6.77c0-.49,0-.88,0-1.16q0-8.09-5.45-8.09t-5.42,9.25Z"/><path class="cls-2" d="M260.41,430.74H270.7v10.13q2.79-10.67,9.92-10.67a11.07,11.07,0,0,1,2,.21v11.41a17,17,0,0,0-2-.17q-8.55,0-8.55,13v18.06h-11.7Z"/><path class="cls-2" d="M298.22,427.29H286.35V415.71h11.87Zm-11.79,3.45h11.71v41.92H286.43Z"/><path class="cls-2" d="M327.23,416h11.5v56.65H327.85v-6.93q-2.64,7.51-9.52,7.51a10.82,10.82,0,0,1-10.07-5.89q-3.31-5.89-3.32-15.48,0-10.92,3.8-16.32a11.84,11.84,0,0,1,10.15-5.39q5.85,0,8.34,4.48Zm0,32.27c0-4.12-.44-6.87-1.31-8.27a4.25,4.25,0,0,0-3.81-2.09,4,4,0,0,0-4,2.9q-1.05,2.9-1.06,12,0,6.8,1.17,9.53A4,4,0,0,0,322,465.1a4.57,4.57,0,0,0,3.73-1.84q1.49-1.85,1.48-7.56Z"/><path class="cls-2" d="M358.48,444.06,347.4,443a13.63,13.63,0,0,1,5.38-9.71,18.85,18.85,0,0,1,11.56-3.4c3.92,0,7.08.75,9.46,2.26a9.91,9.91,0,0,1,4.5,5.25,33.59,33.59,0,0,1,.94,9.25v16.73q0,7.8.7,9.3H369.07a23.3,23.3,0,0,1-.58-6.44q-3.86,7.32-11.48,7.31a11,11,0,0,1-7.95-2.93q-3.07-2.93-3.07-8.53,0-7,4.64-10.85t16.9-4.59v-1.57c0-2.8-.28-4.73-.84-5.81a3.36,3.36,0,0,0-3.29-1.62Q358.95,437.63,358.48,444.06Zm9,8.59q-5.1.59-7.28,2.26t-2.18,5.65q0,5.29,3.9,5.29,2.11,0,3.84-2.38t1.72-8.75Z"/><path class="cls-2" d="M408.33,416h11.5v56.65H409v-6.93q-2.64,7.51-9.53,7.51a10.81,10.81,0,0,1-10.06-5.89Q386,461.46,386,451.87q0-10.92,3.8-16.32A11.84,11.84,0,0,1,400,430.16q5.85,0,8.34,4.48Zm0,32.27c0-4.12-.44-6.87-1.31-8.27a4.25,4.25,0,0,0-3.82-2.09,4,4,0,0,0-4,2.9q-1.05,2.9-1.06,12,0,6.8,1.17,9.53a4,4,0,0,0,3.83,2.73,4.57,4.57,0,0,0,3.73-1.84q1.48-1.85,1.48-7.56Z"/><g id="Page-1"><g id="_026---Idea" data-name="026---Idea"><path id="Shape" class="cls-3" d="M118.46,203.56H101.84A6,6,0,0,0,96,208.4L69.8,342.76A12,12,0,0,0,81.58,357H210.5c0,6.57,13.39,11.95,29.88,11.95s29.89-5.38,29.89-11.95H399.19A11.94,11.94,0,0,0,411,342.76L384.79,208.4a6,6,0,0,0-5.86-4.84Z"/><path id="Shape-2" data-name="Shape" class="cls-4" d="M240.38,221V333.08a138.43,138.43,0,0,0-27.19-8.61,204.63,204.63,0,0,0-106.93,5.44,6,6,0,0,1-7.71-6.69l19.91-119.66,1.67-10.1a6,6,0,0,1,5-5c4.06-.6,8.25-1.19,12.43-1.67A42.67,42.67,0,0,0,175.48,210c1.07,0,2.09-.06,3.1-.12a44.81,44.81,0,0,0,11.66-2.51.77.77,0,0,0,.12.36A31.43,31.43,0,0,0,220,228.55,30.93,30.93,0,0,0,240.38,221Z"/><path id="Shape-3" data-name="Shape" class="cls-5" d="M374.51,329.91a204.63,204.63,0,0,0-106.93-5.44,138.74,138.74,0,0,0-27.2,8.61V221a26.62,26.62,0,0,0,3.47-3.41,50.66,50.66,0,0,0,18.77,3.58H263a20.72,20.72,0,0,0,4.66,11.66,45,45,0,0,0,21,11.71,32.68,32.68,0,0,1,14.82,9.81,12.65,12.65,0,0,0,14.64,3.76,12.46,12.46,0,0,0,7.53-11.41,12.16,12.16,0,0,0-.59-3.83c-.6-1.85-1.26-3.7-2-5.5a46.29,46.29,0,0,0-5.85-10.4,44.64,44.64,0,0,0,22.65-31.08c.18-.24.42-.48.6-.71a32,32,0,0,0,5-8c3.46.41,6.87.83,10.28,1.37a6,6,0,0,1,5,5l1.67,10.1,19.91,119.66a6,6,0,0,1-7.71,6.69Z"/><path id="Shape-4" data-name="Shape" class="cls-6" d="M270.27,354.94c0,5.4-13.39,9.81-29.89,9.81s-29.88-4.41-29.88-9.81l2.69-26.69a160.59,160.59,0,0,1,27.19,7.07,160.94,160.94,0,0,1,27.2-7.07Z"/><path id="Shape-5" data-name="Shape" class="cls-7" d="M348,174.63a31.24,31.24,0,0,1-2.63,12.5,32,32,0,0,1-5,8c-.18.23-.42.47-.6.71a44.64,44.64,0,0,1-22.65,31.08,46.29,46.29,0,0,1,5.85,10.4c.78,1.8,1.44,3.65,2,5.5a12.16,12.16,0,0,1,.59,3.83,12.46,12.46,0,0,1-7.53,11.41,12.65,12.65,0,0,1-14.64-3.76,32.68,32.68,0,0,0-14.82-9.81,45,45,0,0,1-21-11.71A20.72,20.72,0,0,1,263,221.13h-.36a50.66,50.66,0,0,1-18.77-3.58,26.62,26.62,0,0,1-3.47,3.41A30.93,30.93,0,0,1,220,228.55a31.43,31.43,0,0,1-29.64-20.86.77.77,0,0,1-.12-.36,44.81,44.81,0,0,1-11.66,2.51c-1,.06-2,.12-3.1.12a42.7,42.7,0,0,1-34.19-68.26,17.34,17.34,0,0,1-1.08-6.09A18.53,18.53,0,0,1,155,117.38a.17.17,0,0,1,.12-.06c-.06-.72-.12-1.44-.12-2.21a23.65,23.65,0,0,1,2-9.63A24.06,24.06,0,0,1,179.18,91a23.57,23.57,0,0,1,10.46,2.39A35.28,35.28,0,0,1,220,76.08a34.65,34.65,0,0,1,23.19,8.78,18.54,18.54,0,0,1,32.88,2.69,48.89,48.89,0,0,1,5.14-.3,44.57,44.57,0,0,1,44.34,40.88h.18a18.52,18.52,0,0,1,18.53,18.59,19.15,19.15,0,0,1-2.39,9.21,31.68,31.68,0,0,1,6.1,18.7Z"/><path id="Shape-6" data-name="Shape" class="cls-8" d="M240.38,40.21a6,6,0,0,1-6-6v-6a6,6,0,1,1,12,0v6A6,6,0,0,1,240.38,40.21Z"/><path id="Shape-7" data-name="Shape" class="cls-8" d="M336.71,81.35a6,6,0,0,1-4.22-10.2l6-6a6,6,0,1,1,8.46,8.46l-6,6A6,6,0,0,1,336.71,81.35Z"/><path id="Shape-8" data-name="Shape" class="cls-8" d="M144.05,81.35a6,6,0,0,1-4.22-1.75l-6-6a6,6,0,1,1,8.45-8.46l6,6a6,6,0,0,1-4.23,10.2Z"/><path id="Shape-9" data-name="Shape" class="cls-8" d="M190.06,56.2a6,6,0,0,1-5.52-3.68L177.68,36a6,6,0,1,1,11-4.58l6.87,16.57a6,6,0,0,1-5.53,8.26Z"/><path id="Shape-10" data-name="Shape" class="cls-8" d="M290.7,56.2a5.94,5.94,0,0,1-5.52-3.69,5.94,5.94,0,0,1,0-4.57l6.87-16.57a6,6,0,1,1,11,4.58l-6.86,16.57A6,6,0,0,1,290.7,56.2Z"/><path id="Shape-11" data-name="Shape" class="cls-8" d="M361.86,127.37a6,6,0,0,1-2.29-11.51L376.14,109a6,6,0,0,1,4.57,11l-16.56,6.86a6,6,0,0,1-2.29.46Z"/><path id="Shape-12" data-name="Shape" class="cls-8" d="M118.9,127.37a6,6,0,0,1-2.28-.46l-16.57-6.86a6,6,0,0,1,4.58-11l16.56,6.86a6,6,0,0,1-2.29,11.51Z"/><path id="Shape-13" data-name="Shape" class="cls-9" d="M340.38,195.14c-.18.23-.42.47-.6.71A43.7,43.7,0,0,1,333.32,212a34.73,34.73,0,0,1-9.62,1.32,37.63,37.63,0,0,1-17-4.13,39.72,39.72,0,0,1-7-4.78,21.18,21.18,0,0,1-7.47,1.43,20.72,20.72,0,0,1-18.64-11.47A6,6,0,1,1,284.25,189a9,9,0,0,0,13,3.29,8.78,8.78,0,0,0,3.83-7.24,9.1,9.1,0,0,0-.9-4,6,6,0,0,1,10.64-5.38A21.1,21.1,0,0,1,313,185a20.72,20.72,0,0,1-3.76,11.66c.95.66,1.91,1.31,2.87,1.85a25.43,25.43,0,0,0,28.27-3.4Z"/><path id="Shape-14" data-name="Shape" class="cls-9" d="M267.28,171.67a35.69,35.69,0,0,0,14.82-22.75,6,6,0,1,0-11.74-2.25,23.82,23.82,0,0,1-9.9,15.18A24.38,24.38,0,0,1,229,158.26a6,6,0,0,0-8.85,8.07,36.05,36.05,0,0,0,19.16,11,17.81,17.81,0,0,1-14.55,7.49,6,6,0,1,0,0,11.95,29.64,29.64,0,0,0,27.85-19.17,36.15,36.15,0,0,0,14.67-6Z"/><path id="Shape-15" data-name="Shape" class="cls-9" d="M323,237.33a46.58,46.58,0,0,1-14,4.54,5.16,5.16,0,0,1-1,.06,6,6,0,0,1-.89-11.89,34.37,34.37,0,0,0,10-3.11,46.29,46.29,0,0,1,5.85,10.4Z"/><path id="Shape-16" data-name="Shape" class="cls-9" d="M189.82,195.61a31,31,0,0,0-.48,5.08,24,24,0,0,0,.9,6.64,44.81,44.81,0,0,1-11.66,2.51,37.18,37.18,0,0,1-1.19-9,20.78,20.78,0,0,1-18.53-20.62,6.05,6.05,0,0,1,6-6.09,5.94,5.94,0,0,1,6,5.91v.18a9,9,0,0,0,8.55,8.79,35.43,35.43,0,0,1,3.41-7.71,5.89,5.89,0,0,1,8.19-2,6.06,6.06,0,0,1,2,8.24,25.08,25.08,0,0,0-3.17,8.07Z"/><path id="Shape-17" data-name="Shape" class="cls-9" d="M278.7,230.58a50.32,50.32,0,0,1-11.06,2.21A20.72,20.72,0,0,1,263,221.13a12.51,12.51,0,0,0,1.73-.06,44.84,44.84,0,0,0,10.46-1.91,6,6,0,1,1,3.53,11.42Z"/><path id="Shape-18" data-name="Shape" class="cls-9" d="M227.23,123.89a6,6,0,0,0-6-6,27.54,27.54,0,0,0-27.5,27.5,6,6,0,0,0,12,0,15.53,15.53,0,0,1,15.54-15.54A6,6,0,0,0,227.23,123.89Z"/><path id="Shape-19" data-name="Shape" class="cls-9" d="M149.22,157.5a5.93,5.93,0,0,1-3.07-.86,24.59,24.59,0,0,1-10.54-13,24.19,24.19,0,0,1-1.37-8.05A24.58,24.58,0,0,1,158.75,111a24.24,24.24,0,0,1,19.65,9.91,6,6,0,1,1-9.59,7.13,12.44,12.44,0,0,0-10-5.07,12.63,12.63,0,0,0-6.46,23.45,6,6,0,0,1-3.09,11.09Z"/><path id="Shape-20" data-name="Shape" class="cls-9" d="M277.48,100.65a6,6,0,0,1-6-6,12.58,12.58,0,0,0-25.15,0,6,6,0,1,1-12,0,24.53,24.53,0,1,1,49,0,6,6,0,0,1-6,6Z"/><path id="Shape-21" data-name="Shape" class="cls-9" d="M333.55,169.56A6,6,0,0,1,331,158.2a12.61,12.61,0,1,0-12.82-21.53,6,6,0,1,1-7.17-9.56,24.25,24.25,0,0,1,14.52-4.93A24.57,24.57,0,0,1,336.1,169a5.91,5.91,0,0,1-2.55.55Z"/></g></g></svg>